<?xml version="1.0" encoding="utf-8"?>
<!-- Generator: Adobe Illustrator 16.0.0, SVG Export Plug-In . SVG Version: 6.00 Build 0)  -->
<!DOCTYPE svg PUBLIC "-//W3C//DTD SVG 1.1//EN" "http://www.w3.org/Graphics/SVG/1.1/DTD/svg11.dtd">
<svg version="1.1" id="Layer_1" xmlns="http://www.w3.org/2000/svg" xmlns:xlink="http://www.w3.org/1999/xlink" x="0px" y="0px"
	 width="35px" height="30px" viewBox="0 0 35 30" enable-background="new 0 0 35 30" xml:space="preserve">
<g>
	<path fill="#0D0F21" d="M0.139,13.987C0.233,8.296,5.466,3.311,11.157,3.502c2.726-0.126,5.291,1.06,7.379,2.727
		c-0.892,1.013-1.815,1.987-2.801,2.901c-2.512-1.735-6.082-2.231-8.592-0.227c-3.593,2.484-3.755,8.349-0.301,11.023
		c3.36,3.048,9.71,1.534,10.639-3.134c-2.105-0.032-4.214,0-6.319-0.069c-0.005-1.255-0.011-2.51-0.005-3.766
		c3.518-0.009,7.037-0.015,10.559,0.011c0.212,2.953-0.179,6.098-1.993,8.539c-2.748,3.865-8.266,4.995-12.569,3.338
		C2.834,23.202-0.225,18.639,0.139,13.987L0.139,13.987z"/>
	<path fill="#0D0F21" d="M28.577,9.789c1.046,0,2.089,0,3.139,0c0.006,1.051,0.011,2.104,0.021,3.154
		c1.05,0.01,2.104,0.01,3.153,0.021c0,1.044,0,2.094,0,3.139c-1.05,0.01-2.099,0.015-3.153,0.025
		c-0.011,1.056-0.016,2.105-0.021,3.155c-1.05,0-2.093,0-3.144,0c-0.011-1.05-0.011-2.1-0.021-3.151
		c-1.05-0.009-2.104-0.02-3.154-0.029c0-1.045,0-2.089,0-3.139c1.05-0.011,2.099-0.015,3.154-0.021
		C28.558,11.887,28.568,10.84,28.577,9.789L28.577,9.789z"/>
</g>
</svg>
