<?xml version="1.0" encoding="utf-8"?>
<!-- Generator: Adobe Illustrator 18.1.0, SVG Export Plug-In . SVG Version: 6.00 Build 0)  -->
<svg version="1.1" id="Layer_1" xmlns="http://www.w3.org/2000/svg" xmlns:xlink="http://www.w3.org/1999/xlink" x="0px" y="0px"
	 viewBox="0 0 275 65" enable-background="new 0 0 275 65" xml:space="preserve">
<path fill="#FEDD46" d="M259.4,58.3c0,3.6-2.9,6.5-6.5,6.5H22.1c-3.6,0-6.5-2.9-6.5-6.5V6.7c0-3.6,2.9-6.5,6.5-6.5h230.8
	c3.6,0,6.5,2.9,6.5,6.5L259.4,58.3L259.4,58.3z"/>
<g>
	<g>
		<path fill="#010101" d="M40.8,40.6c-1.9,0-3.9-0.3-5.7-1.2l-0.3-0.2c-0.1-0.1-0.1-0.1-0.1-0.1c-0.1,0-0.6,0.7-1,1.1h-0.4l-0.1-6.5
			h0.4c0.8,2.3,2.4,4.6,3.9,5.3c0.8,0.4,2,0.8,3.1,0.8c3.1,0,5.2-1.8,5.2-4.6c0-2.3-1.5-3.4-3.6-4.1c-2.1-0.8-2.8-1-4.6-1.7
			c-2.2-0.9-4.2-3-4.2-5.8c0-4.6,3.6-6.7,7.7-6.7c1.7,0,3.6,0.3,5.1,1.3c0.1,0.1,0.2,0.1,0.3,0.2c0.1,0.1,0.1,0.1,0.1,0.1
			c0.1,0,0.6-0.7,1-1.1H48v6h-0.5c-1-2.9-3.2-5.8-6.4-5.8c-2.6,0-4.6,1.5-4.6,4.4c0,2.1,1.5,3.5,3.6,4.2c1.7,0.7,2.9,1,4.6,1.5
			c2.9,1,4.6,3.1,4.6,6.1C49.1,38.1,45.6,40.6,40.8,40.6z"/>
		<path fill="#010101" d="M57.5,40.2c-0.8,0-1.5-0.1-2.2-0.2c0.1,1.4,0.1,4.9,0.1,6.5c0.1,0.3,0.5,0.5,1,0.6
			c0.5,0.1,1.1,0.1,1.6,0.2v0.5h-8v-0.5c1-0.1,2.6-0.3,2.6-1V28.6c0-0.3-0.1-0.4-0.3-0.6c-0.4-0.2-1.4-0.7-2-1v-0.3l4.7-1.8h0.3v3.5
			c1.1-1.5,2.9-3.5,5.2-3.5c4,0,5.9,3.6,5.9,7C66.4,36.7,63,40.2,57.5,40.2z M58.7,27.1c-2.1,0-3.5,1.8-3.5,2.3
			c0,0.8-0.1,1.9-0.1,2.6c0,1.7-0.1,2.5,0.1,3.5c0.1,1.8,0.7,3.9,3.5,3.9c2.4,0,4.6-2.8,4.6-6.7C63.4,29.6,61.9,27.1,58.7,27.1z"/>
		<path fill="#010101" d="M78.6,40.4c-1.5,0-2.8-0.8-2.8-2.8c-0.8,1.1-2.3,2.8-4.6,2.8c-1.4,0-3-0.8-3-3.1c0-1.2,1.1-2.4,2.5-3.3
			c2.8-1.7,4.2-2.4,5.1-2.9v-3.2c0-0.1-0.4-1.4-2.4-1.4c-1.4,0-2.6,1.1-2.6,1.5v1.5c0,0.7-0.8,1.2-1.5,1.2s-1.3-0.6-1.3-1.3
			c0-1,1.1-1.6,1.9-2.1c2.1-1.3,4.7-2.4,5.8-2.4c1.1,0,2.2,0.7,2.7,1.5c0.2,0.3,0.2,1.2,0.2,1.9c0,3-0.1,4.7-0.1,7.6
			c0,1.8,0.8,2.3,1.5,2.3c1,0,1.4-0.4,1.5-1.1h0.3C81.7,38.8,80.3,40.4,78.6,40.4z M75.6,31.7c-0.3,0.3-0.8,0.5-1.3,0.8
			c-0.5,0.3-1.1,0.7-1.7,1c-1.1,0.8-1.9,1.5-1.9,2.6c0,1.1,0.8,2.1,2,2.1c1,0,1.9-0.2,2.6-1c0.3-0.3,0.3-0.5,0.3-0.8L75.6,31.7
			L75.6,31.7z"/>
		<path fill="#010101" d="M91.5,28.3c-0.8,0-1-0.3-1.4-0.6c-0.3-0.3-0.6-0.5-1.1-0.5c-1,0-1.8,1.5-2.3,2.8V39c0.1,0.3,0.5,0.5,1,0.6
			c0.5,0.1,1.1,0.1,1.6,0.2v0.5h-7.2v-0.5c1-0.1,1.7-0.3,1.7-1V28.2c0-0.3-0.1-0.4-0.3-0.6c-0.4-0.2-0.9-0.5-1.5-0.8v-0.3l4.2-1.6
			h0.3L86.5,29c0.3-0.8,0.8-1.6,1.3-2.4c0.8-1,1.7-1.8,3.1-1.8c1.1,0,2,0.8,2,1.7C93,27.6,92.3,28.3,91.5,28.3z"/>
		<path fill="#010101" d="M101.5,40.4c-2.4,0-4.5-0.8-5.8-1.9h-0.1l-0.8,1.7h-0.3V20.4c-0.4-0.3-1.1-0.7-1.8-1v-0.3l4.3-2h0.3
			l-0.1,11.2c0.8-1.7,3.3-3.5,5.5-3.5c4,0,6.3,3.7,6.3,7.7C109,36.8,105.9,40.4,101.5,40.4z M101,27c-2.6,0-3.7,1.9-3.7,2.4
			c-0.1,0.5-0.1,1.7-0.1,2.2c0,0.8,0,1.7,0.1,2.5c0.1,2.8,1.2,5.7,4.3,5.7c2.6,0,4.3-2.8,4.3-6.7C105.9,29.8,104.5,27,101,27z"/>
		<path fill="#010101" d="M121.1,40.4c-1.5,0-2.8-0.8-2.8-2.8c-0.8,1.1-2.3,2.8-4.6,2.8c-1.4,0-3-0.8-3-3.1c0-1.2,1.1-2.4,2.5-3.3
			c2.8-1.7,4.2-2.4,5.1-2.9v-3.2c0-0.1-0.4-1.4-2.4-1.4c-1.4,0-2.6,1.1-2.6,1.5v1.5c0,0.7-0.8,1.2-1.5,1.2s-1.3-0.6-1.3-1.3
			c0-1,1.1-1.6,1.9-2.1c2.1-1.3,4.7-2.4,5.8-2.4c1.1,0,2.2,0.7,2.7,1.5c0.2,0.3,0.2,1.2,0.2,1.9c0,3-0.1,4.7-0.1,7.6
			c0,1.8,0.8,2.3,1.5,2.3c1,0,1.4-0.4,1.5-1.1h0.3C124.3,38.8,123,40.4,121.1,40.4z M118.3,31.7c-0.3,0.3-0.8,0.5-1.3,0.8
			c-0.5,0.3-1.1,0.7-1.7,1c-1.1,0.8-1.9,1.5-1.9,2.6c0,1.1,0.8,2.1,2,2.1c1,0,1.9-0.2,2.6-1c0.3-0.3,0.3-0.5,0.3-0.8L118.3,31.7
			L118.3,31.7z"/>
		<path fill="#010101" d="M133.6,40.4v-0.5c1.3-0.1,1.9-0.2,1.9-0.8v-8c0-2.4-0.9-4-3-4c-1.4,0-2.1,0.6-3.2,1.7v10.4
			c0.1,0.6,0.5,0.6,1,0.7c0.2,0.1,0.4,0.1,0.7,0.1v0.5h-6.3v-0.5c1.1-0.1,1.7-0.3,1.7-1V28c0-0.3,0-0.4-0.3-0.6
			c-0.4-0.2-1-0.5-1.5-0.8v-0.3l4.2-1.5h0.3v3.4c1-1.5,2.9-3.4,5.1-3.4c2.5,0,3.9,2.1,3.9,4.9V39c0,0.3,0.2,0.4,0.6,0.5
			c0.4,0.1,1,0.1,1.3,0.2v0.4L133.6,40.4L133.6,40.4z"/>
		<path fill="#010101" d="M149.8,40.4v-0.5c0.9-0.1,1.5-0.1,1.5-0.6c0-0.4-2.6-4-3.8-5.8c-0.4-0.5-0.6-0.7-0.9-0.7
			c-0.2,0-0.3,0-0.4,0.1V39c0,0.6,0.6,0.7,1,0.8c0.2,0.1,0.4,0.1,0.7,0.1v0.5h-6.4v-0.5c1.1-0.1,1.9-0.2,1.9-1v-18
			c0-0.3,0-0.4-0.3-0.7c-0.1-0.1-0.3-0.3-0.7-0.4c-0.3-0.2-0.6-0.3-1-0.4v-0.3l4.3-2h0.3v15.1c2.5-2.1,6-5.4,6-5.9
			c0-0.5-1.5-0.8-2.6-0.8v-0.5h7.9v0.5c-0.2,0.1-1,0.1-1.8,0.3c-1,0.2-2,0.6-2.8,1.4c-1.3,1.1-2.7,2.4-3.8,3.4
			c1.8,2.8,3.6,5.4,4.8,7c0.8,1,1.4,1.6,1.8,2c0.3,0.1,1.1,0.2,2,0.2v0.5h-7.8V40.4z"/>
		<path fill="#010101" d="M163.8,40.4c-4.4,0-7.2-3.7-7.2-8.2c0-3.6,2.7-7.4,6.8-7.4c3.4,0,6,1.7,6.2,5.4h-10.2
			c0,0.3-0.1,0.8-0.1,1.2c0,3.5,2,6.7,5.8,6.7c2.1,0,3.8-1.2,4.3-2.8l0.4,0.1C169.5,37.3,167.3,40.4,163.8,40.4z M163.3,25.5
			c-2.2,0-3.7,2.9-3.9,4c1.8,0,2.9-0.1,4.8-0.1c0.7,0,1.2,0,1.5-0.2c0.3-0.3,0.4-0.5,0.4-1.1C166.2,26.8,165.1,25.5,163.3,25.5z"/>
		<path fill="#010101" d="M179.5,40.4v-0.5c1.3-0.1,1.9-0.2,1.9-0.8v-8c0-2.4-0.9-4-3-4c-1.4,0-2.1,0.6-3.2,1.7v10.4
			c0.1,0.6,0.5,0.6,1,0.7c0.2,0.1,0.4,0.1,0.7,0.1v0.5h-6.3v-0.5c1.1-0.1,1.7-0.3,1.7-1V28c0-0.3,0-0.4-0.3-0.6
			c-0.4-0.2-1-0.5-1.5-0.8v-0.3l4.2-1.5h0.3v3.4c1-1.5,2.9-3.4,5.1-3.4c2.5,0,3.9,2.1,3.9,4.9V39c0,0.3,0.2,0.4,0.6,0.5
			s1,0.1,1.3,0.2v0.4L179.5,40.4L179.5,40.4z"/>
		<path fill="#010101" d="M203.1,40.6c-1.9,0-3.9-0.3-5.7-1.2l-0.3-0.2c-0.1-0.1-0.1-0.1-0.1-0.1c-0.1,0-0.6,0.7-1,1.1h-0.4
			l-0.1-6.5h0.4c0.8,2.3,2.4,4.6,3.9,5.3c0.8,0.4,2,0.8,3.1,0.8c3.1,0,5.2-1.8,5.2-4.6c0-2.3-1.5-3.4-3.6-4.1
			c-2.1-0.8-2.8-1-4.6-1.7c-2.2-0.9-4.2-3-4.2-5.8c0-4.6,3.6-6.7,7.7-6.7c1.7,0,3.6,0.3,5.1,1.3c0.1,0.1,0.2,0.1,0.3,0.2
			c0.1,0.1,0.1,0.1,0.1,0.1c0.1,0,0.6-0.7,1-1.1h0.4v6h-0.5c-1-2.9-3.2-5.8-6.4-5.8c-2.6,0-4.6,1.5-4.6,4.4c0,2.1,1.5,3.5,3.6,4.2
			c1.7,0.7,2.9,1,4.6,1.5c2.9,1,4.6,3.1,4.6,6.1C211.4,38.1,207.9,40.6,203.1,40.6z"/>
		<path fill="#010101" d="M224,27c-0.7,2-3.8,12-5.8,18.7c-0.5,1.6-1.5,2.3-2.6,2.3c-1,0-1.8-0.6-1.8-1.5s0.6-1.5,1.5-1.5
			c0.8,0,1.4,0.6,2,1.1c0.9-2.2,1.5-4.5,1.5-4.9c-0.3-0.8-3.5-9.7-5.4-14.8c-0.3-0.4-0.7-0.7-2.2-0.8v-0.5h7.1v0.5
			c-0.3,0.1-0.9,0.1-1.2,0.3c-0.3,0.1-0.4,0.3-0.4,0.7c0,0.3,0.7,2.1,1.4,4.3c0.8,2.1,1.5,4.4,2.1,5.9c0.3-0.8,1-3,1.5-5.2
			c0.8-2.4,1.5-4.8,1.5-5.2c0-0.6-0.7-0.7-1.1-0.8c-0.2-0.1-0.4-0.1-0.7-0.1v-0.4h5.1v0.5C225.3,25.7,224.4,25.7,224,27z"/>
		<path fill="#010101" d="M237.1,40.5h-0.3v-3.1c-1.2,2-2.8,3-5.2,3c-3.2,0-6.2-2.7-6.2-7.7c0-4.5,3.3-7.9,8.2-7.9
			c1.2,0,2.3,0.2,3.3,0.5c-0.1-1.4-0.1-4.6-0.1-5.5l-2.6-1v-0.3l5.1-1.4h0.3v20.7c0.3,0.2,1.5,0.7,2.2,1V39L237.1,40.5z M236.8,28.4
			c-1-1.7-2.6-2.8-3.7-2.8c-3.2,0-4.6,3.3-4.6,6.7c0,3.5,1.7,6.7,4.9,6.7c1.7,0,3-1.3,3.4-3.1L236.8,28.4L236.8,28.4z"/>
	</g>
</g>
</svg>
