<?xml version="1.0" encoding="utf-8"?>
<!-- Generator: Adobe Illustrator 16.0.0, SVG Export Plug-In . SVG Version: 6.00 Build 0)  -->
<!DOCTYPE svg PUBLIC "-//W3C//DTD SVG 1.1//EN" "http://www.w3.org/Graphics/SVG/1.1/DTD/svg11.dtd">
<svg version="1.1" id="Layer_1" xmlns="http://www.w3.org/2000/svg" xmlns:xlink="http://www.w3.org/1999/xlink" x="0px" y="0px"
	 width="100px" height="100px" viewBox="0 0 100 100" enable-background="new 0 0 100 100" xml:space="preserve">
<g>
	<path fill-rule="evenodd" clip-rule="evenodd" fill="#8F5322" d="M49.917,7.374C66.584,7.323,80.27,20.218,81.35,36.888
		c0.36,5.546-1.3,10.606-3.436,15.55c-4.559,10.54-10.822,20.084-17.474,29.384c-2.12,2.963-4.305,5.886-6.582,8.729
		c-2.184,2.725-5.607,2.791-7.736,0.066C36.83,78.723,28.216,66.385,22.043,52.52c-1.645-3.695-3.132-7.498-3.373-11.567
		c-0.724-12.262,4.226-21.803,14.35-28.617C38.086,8.927,43.801,7.381,49.917,7.374z M60.383,38.87
		c0.004-5.81-4.59-10.481-10.34-10.515c-5.83-0.034-10.503,4.638-10.504,10.5c-0.001,5.796,4.606,10.395,10.415,10.397
		C55.767,49.254,60.381,44.66,60.383,38.87z"/>
</g>
</svg>
