<?xml version="1.0" encoding="utf-8"?>
<!-- Generator: Adobe Illustrator 16.0.0, SVG Export Plug-In . SVG Version: 6.00 Build 0)  -->
<!DOCTYPE svg PUBLIC "-//W3C//DTD SVG 1.1//EN" "http://www.w3.org/Graphics/SVG/1.1/DTD/svg11.dtd">
<svg version="1.1" id="Layer_1" xmlns="http://www.w3.org/2000/svg" xmlns:xlink="http://www.w3.org/1999/xlink" x="0px" y="0px"
	 width="300px" height="200px" viewBox="0 0 300 200" enable-background="new 0 0 300 200" xml:space="preserve">
<g>
	<g>
		<path fill="#FFFFFF" d="M222.5,56.313c-4.33-4.328-8.631-8.627-12.949-12.941c0.072-0.08,0.123-0.152,0.188-0.215
			c1.342-1.377,2.682-2.757,4.037-4.126c0.1-0.104,0.285-0.177,0.434-0.178c2.639-0.009,5.283-0.006,7.928-0.004
			c2.939,0,5.881-0.003,8.822,0.007c0.141,0.001,0.32,0.059,0.414,0.158c1.314,1.382,2.611,2.777,3.912,4.168
			c0.051,0.054,0.096,0.112,0.164,0.193C231.139,47.68,226.832,51.983,222.5,56.313z M225.445,44.91
			c-2.033,0-4.023,0.001-6.049,0.002c1.02,2.466,2.006,4.859,3.023,7.329C223.445,49.754,224.438,47.354,225.445,44.91z
			 M223.936,52.68c2.598-2.596,5.156-5.155,7.752-7.755c-0.146-0.006-0.238-0.013-0.33-0.013c-1.113-0.001-2.219-0.002-3.332,0.002
			c-0.303,0-0.686-0.088-0.895,0.061c-0.221,0.16-0.283,0.549-0.406,0.841c-0.73,1.759-1.459,3.519-2.186,5.282
			C224.334,51.602,224.152,52.116,223.936,52.68z M220.75,52.372c0.014-0.009,0.027-0.02,0.041-0.031
			c-0.012-0.035-0.025-0.069-0.039-0.105c-0.977-2.378-1.959-4.753-2.932-7.134c-0.066-0.161-0.158-0.197-0.316-0.197
			c-1.074,0.006-2.148,0.005-3.225,0.006c-0.303,0-0.602,0.002-0.982,0.003C215.818,47.435,218.285,49.905,220.75,52.372z
			 M221.047,40.387c-1.729,0-3.385,0-5.117,0c0.852,1.005,1.654,1.957,2.48,2.931C219.279,42.352,220.139,41.397,221.047,40.387z
			 M224.033,40.387c0.881,0.899,1.715,1.749,2.564,2.616c0.832-0.873,1.641-1.719,2.494-2.614
			C227.385,40.387,225.746,40.387,224.033,40.387z M228.389,43.353c1.658-0.001,3.234-0.001,4.861-0.002
			c-0.811-0.888-1.58-1.734-2.375-2.601C230.057,41.607,229.25,42.45,228.389,43.353z M211.713,43.35
			c1.602-0.002,3.121-0.003,4.703-0.003c-0.758-0.896-1.461-1.727-2.186-2.583C213.4,41.615,212.584,42.455,211.713,43.35z
			 M224.785,43.35c-0.789-0.804-1.516-1.547-2.26-2.304c-0.695,0.772-1.361,1.515-2.07,2.304
			C221.922,43.35,223.309,43.35,224.785,43.35z"/>
	</g>
	<g>
		<path fill="#FFFFFF" d="M68.391,61.022h4.082h0.823c2.362,0,3.544,1.012,3.544,3.038c0,1.266-0.48,2.336-1.44,3.212
			c-0.96,0.875-2.146,1.313-3.56,1.313h-0.822h-5.697l-6.139,15.158c-4.262,10.464-10.57,15.696-18.923,15.696
			c-4.368,0-7.984-1.407-10.854-4.224c-2.869-2.817-4.304-6.368-4.304-10.65c0-3.333,0.85-6.52,2.547-9.557
			c1.699-3.039,4.076-5.655,7.136-7.848c2.595-1.835,5.617-3.291,9.067-4.367c3.448-1.076,6.851-1.614,10.204-1.614l4.462-0.126
			l1.393-0.032l6.076-15.284l0.348-0.886c0.485-1.308,1.103-2.178,1.851-2.611c0.75-0.433,2.01-0.648,3.782-0.648h16.234
			c2.933,0,4.398,1.034,4.398,3.101c0,1.224-0.485,2.273-1.456,3.148c-0.97,0.876-2.151,1.313-3.544,1.313h-0.854H73.231
			L68.391,61.022z M56.841,68.584h-1.709c-6.244,0-11.233,1.423-14.967,4.272c-4.177,3.186-6.266,6.782-6.266,10.79
			c0,2.151,0.66,3.955,1.978,5.412c1.318,1.456,2.959,2.183,4.921,2.183c4.556,0,8.302-3.617,11.234-10.854L56.841,68.584z"/>
		<path fill="#FFFFFF" d="M90.035,67.509l-1.076,2.658c-0.97,2.363-2.237,3.544-3.797,3.544c-0.95,0-1.74-0.284-2.374-0.854
			c-0.633-0.57-0.949-1.275-0.949-2.12c0-0.486,0.231-1.308,0.695-2.469l3.576-8.828c0.865-2.131,2.089-3.196,3.671-3.196
			c1.561,0,2.521,0.739,2.88,2.215l0.253,0.981c0.126,0.506,0.316,0.823,0.57,0.949c0.252,0.126,0.875,0.19,1.867,0.19h7.405
			c2.763,0,4.145,0.97,4.145,2.911c0,2.68-1.751,4.02-5.252,4.02l-0.348,0.317c-3.354,3.206-5.032,5.685-5.032,7.437
			c0,1.75,0.971,2.626,2.911,2.626h3.988c2.678,0,4.019,0.928,4.019,2.785c0,1.308-0.47,2.32-1.408,3.038
			c-0.939,0.717-2.252,1.076-3.94,1.076h-6.202c-2.11,0-3.834-0.728-5.173-2.184c-1.34-1.456-2.01-3.344-2.01-5.664
			c0-1.477,0.359-2.912,1.076-4.304c0.718-1.393,1.983-3.102,3.797-5.126L90.035,67.509L90.035,67.509z"/>
		<path fill="#FFFFFF" d="M116.173,75.515c0,1.582,1.191,2.374,3.576,2.374h9.397c2.658,0,3.988,0.939,3.988,2.817
			c0,1.287-0.469,2.288-1.408,3.006c-0.939,0.717-2.252,1.076-3.94,1.076h-8.955c-3.333,0-5.87-0.823-7.61-2.469
			c-1.74-1.645-2.611-4.05-2.611-7.214c0-4.073,1.377-7.585,4.129-10.538c2.753-2.954,6.028-4.43,9.826-4.43
			c2.764,0,4.984,0.722,6.662,2.167c1.676,1.445,2.515,3.348,2.515,5.711c0,2.849-1.16,4.958-3.48,6.329
			c-1.288,0.781-3.207,1.171-5.759,1.171H116.173z M117.692,69.755h3.481c2.258,0,3.355-0.496,3.292-1.487
			c-0.064-1.117-0.792-1.676-2.184-1.676C120.339,66.591,118.811,67.646,117.692,69.755z"/>
		<path fill="#FFFFFF" d="M141.932,75.515c0,1.582,1.191,2.374,3.576,2.374h9.396c2.658,0,3.988,0.939,3.988,2.817
			c0,1.287-0.469,2.288-1.408,3.006c-0.939,0.717-2.252,1.076-3.939,1.076h-8.957c-3.332,0-5.87-0.823-7.61-2.469
			c-1.74-1.645-2.609-4.05-2.609-7.214c0-4.073,1.375-7.585,4.129-10.538c2.752-2.954,6.029-4.43,9.825-4.43
			c2.763,0,4.984,0.722,6.662,2.167c1.678,1.445,2.516,3.348,2.516,5.711c0,2.849-1.16,4.958-3.482,6.329
			c-1.285,0.781-3.205,1.171-5.759,1.171H141.932z M143.45,69.755h3.481c2.257,0,3.354-0.496,3.29-1.487
			c-0.063-1.117-0.792-1.676-2.182-1.676C146.098,66.591,144.569,67.646,143.45,69.755z"/>
		<path fill="#FFFFFF" d="M170.635,69.218l-0.602,1.456c-0.93,2.089-2.246,3.133-3.955,3.133c-0.867,0-1.641-0.3-2.326-0.902
			c-0.686-0.601-1.029-1.292-1.029-2.073c0-0.738,0.307-1.719,0.918-2.943l4.209-8.544c1.033-2.046,2.32-3.069,3.861-3.069
			c0.822,0,1.527,0.268,2.119,0.807c0.592,0.537,0.887,1.175,0.887,1.914c0,0.19-0.063,0.601-0.189,1.234
			c-0.086,0.464-0.127,0.875-0.127,1.234c0,1.329,0.496,2.69,1.486,4.083l1.805,2.5c1.836,2.552,2.754,5.021,2.754,7.405
			c0,2.657-0.994,4.878-2.977,6.661c-1.982,1.783-4.449,2.674-7.404,2.674h-6.613c-2.68,0-4.02-0.929-4.02-2.785
			c0-1.287,0.475-2.294,1.426-3.022c0.947-0.729,2.256-1.092,3.924-1.092h3.67c2.934,0,4.398-1.066,4.398-3.196
			c0-0.781-0.275-1.699-0.822-2.753L170.635,69.218z"/>
		<path fill="#FFFFFF" d="M189.588,82.318l-8.258,20.316c-1.141,2.806-2.805,4.209-5,4.209c-0.844,0-1.566-0.279-2.168-0.839
			c-0.6-0.559-0.902-1.229-0.902-2.01c0-0.652,0.266-1.645,0.791-2.973l15.254-37.593c0.781-1.899,2.131-2.849,4.049-2.849
			c1.33,0,2.385,0.633,3.166,1.898c1.477-1.561,3.279-2.341,5.41-2.341c2.215,0,4.002,0.839,5.363,2.516
			c1.361,1.678,2.043,3.887,2.043,6.629c0,5.189-1.615,9.419-4.842,12.689c-1.057,1.076-2.143,1.814-3.26,2.215
			c-1.119,0.401-2.68,0.602-4.684,0.602c-2.152,0-3.635-0.147-4.447-0.443C191.293,84.048,190.453,83.373,189.588,82.318z
			 M192.184,75.863c0.527,0.928,1.029,1.529,1.502,1.803c0.477,0.274,1.23,0.412,2.264,0.412c1.498,0,2.67-0.559,3.512-1.677
			c1.711-2.257,2.564-4.578,2.564-6.962c0-2.045-0.973-3.069-2.912-3.069c-2.131,0-3.66,1.234-4.588,3.702
			c-0.105,0.274-0.189,0.507-0.252,0.697L192.184,75.863z"/>
		<path fill="#FFFFFF" d="M219.811,77.888h3.574c2.658,0,3.988,0.939,3.988,2.817c0,1.287-0.471,2.288-1.41,3.006
			c-0.938,0.717-2.252,1.076-3.939,1.076h-5.031c-1.855,0-3.316-0.38-4.383-1.14c-1.064-0.76-1.598-1.792-1.598-3.101
			c0-0.697,0.221-1.582,0.664-2.658l5.221-12.847l0.348-0.887c0.971-2.384,2.533-3.576,4.684-3.576c0.887,0,1.652,0.295,2.295,0.886
			c0.645,0.591,0.965,1.298,0.965,2.12c0,0.676-0.285,1.709-0.854,3.102L219.811,77.888z"/>
		<path fill="#FFFFFF" d="M252.021,77.888h3.799c2.68,0,4.02,0.939,4.02,2.817c0,1.287-0.477,2.288-1.424,3.006
			c-0.951,0.717-2.258,1.076-3.924,1.076h-6.615c-1.285,0-2.367-0.391-3.242-1.171c-0.877-0.78-1.313-1.761-1.313-2.942
			c0-0.717,0.295-1.793,0.885-3.228l2.785-6.898c0.297-0.717,0.453-1.298,0.475-1.741c0.021-0.506-0.184-0.938-0.615-1.297
			c-0.436-0.358-0.988-0.538-1.664-0.538c-2.172,0-3.924,1.635-5.252,4.905l-3.732,9.176c-1.119,2.785-2.785,4.177-5.002,4.177
			c-0.906,0-1.678-0.275-2.311-0.823c-0.631-0.549-0.947-1.224-0.947-2.025c0-0.591,0.168-1.297,0.506-2.121l0.348-0.855
			l6.393-15.758c0.822-2.046,2.225-3.069,4.209-3.069c1.623,0,2.785,0.717,3.48,2.152c2.258-1.73,4.41-2.595,6.455-2.595
			c1.982,0,3.617,0.569,4.906,1.708c1.285,1.139,1.93,2.584,1.93,4.335c0,0.971-0.232,2.036-0.697,3.196L252.021,77.888z"/>
	</g>
	<g>
		<path fill="#FFFFFF" d="M74.875,100.367H71.3h-0.855c-2.363,0-3.544-1.014-3.544-3.037c0-1.266,0.484-2.337,1.455-3.213
			c0.97-0.875,2.152-1.313,3.544-1.313h0.854h12.848c4.156,0,7.363,0.913,9.62,2.737s3.386,4.424,3.386,7.801
			c0,2.91-0.85,5.527-2.548,7.846c-1.698,2.321-3.97,3.979-6.819,4.969c3.861,1.879,5.791,5.105,5.791,9.684
			c0,2.934-0.796,5.807-2.389,8.623c-1.594,2.816-3.698,5.068-6.313,6.756c-3.523,2.277-8.84,3.418-15.949,3.418h-4.652
			l-0.379,0.885c-1.477,3.271-2.637,5.582-3.48,6.932c-0.844,1.35-1.931,2.637-3.26,3.859c-3.523,3.229-7.542,4.842-12.057,4.842
			c-3.691,0-6.745-1.096-9.161-3.291c-2.416-2.191-3.624-4.988-3.624-8.385c0-2.172,0.518-4.193,1.551-6.059
			c1.034-1.867,2.436-3.318,4.208-4.354c2.299-1.328,5.422-1.992,9.367-1.992h11.044L74.875,100.367z M56.87,144.637h-8.228
			c-4.135,0-6.203,1.477-6.203,4.432c0,1.182,0.449,2.182,1.345,3.004c0.896,0.824,1.988,1.236,3.275,1.236
			c1.92,0,3.744-0.766,5.475-2.293C54.264,149.484,55.709,147.359,56.87,144.637z M68.831,137.074h2.563
			c4.514,0,7.942-0.781,10.284-2.342c1.498-0.99,2.716-2.352,3.655-4.082c0.939-1.729,1.408-3.469,1.408-5.221
			c0-2.066-0.618-3.523-1.852-4.367c-1.234-0.844-3.38-1.268-6.439-1.268h-2.626L68.831,137.074z M78.894,112.234l1.898-0.033
			c2.953,0,5.189-0.684,6.708-2.056c0.801-0.718,1.472-1.647,2.009-2.785c0.538-1.138,0.807-2.194,0.807-3.165
			c0-1.751-0.771-2.91-2.311-3.48c-0.612-0.232-1.878-0.348-3.797-0.348h-0.474L78.894,112.234z"/>
		<path fill="#FFFFFF" d="M113.196,111.348c3.059,0,5.574,0.971,7.547,2.911c1.973,1.94,2.959,4.409,2.959,7.405
			c0,2.258-0.517,4.5-1.551,6.725c-1.034,2.227-2.373,4.002-4.019,5.332c-1.098,0.865-2.231,1.461-3.401,1.787
			c-1.171,0.328-2.812,0.49-4.921,0.49c-3.439,0-5.759-0.41-6.962-1.232c-2.827-1.941-4.24-4.811-4.24-8.609
			c0-4.008,1.444-7.477,4.334-10.409S109.251,111.348,113.196,111.348z M112.437,118.088c-1.562,0-2.985,0.771-4.272,2.311
			c-1.287,1.541-1.93,3.238-1.93,5.094c0,2.449,1.371,3.672,4.114,3.672c1.603,0,2.837-0.496,3.702-1.488
			c1.435-1.623,2.152-3.48,2.152-5.568c0-1.203-0.348-2.172-1.045-2.912C114.462,118.457,113.554,118.088,112.437,118.088z"/>
		<path fill="#FFFFFF" d="M148.827,129.1h3.798c2.678,0,4.02,0.939,4.02,2.816c0,1.289-0.477,2.289-1.426,3.006
			c-0.947,0.719-2.258,1.076-3.922,1.076h-6.614c-1.287,0-2.368-0.389-3.243-1.17c-0.877-0.781-1.314-1.762-1.314-2.943
			c0-0.715,0.295-1.793,0.886-3.227l2.784-6.898c0.295-0.717,0.455-1.297,0.475-1.74c0.02-0.506-0.185-0.938-0.617-1.297
			c-0.432-0.359-0.986-0.537-1.661-0.537c-2.173,0-3.924,1.635-5.252,4.904l-3.734,9.176c-1.118,2.785-2.786,4.178-5,4.178
			c-0.907,0-1.677-0.275-2.311-0.824c-0.633-0.547-0.949-1.223-0.949-2.025c0-0.59,0.169-1.297,0.506-2.119l0.348-0.854
			l6.393-15.761c0.823-2.046,2.226-3.068,4.209-3.068c1.624,0,2.784,0.717,3.48,2.151c2.257-1.729,4.409-2.594,6.455-2.594
			c1.983,0,3.619,0.57,4.903,1.709c1.287,1.139,1.932,2.584,1.932,4.334c0,0.971-0.232,2.037-0.695,3.195L148.827,129.1z"/>
		<path fill="#FFFFFF" d="M179.428,129.1h3.482c2.656,0,3.986,0.928,3.986,2.785c0,1.287-0.475,2.295-1.424,3.021
			c-0.949,0.729-2.258,1.092-3.924,1.092h-4.051c-1.814,0-3.049-0.705-3.703-2.119c-1.582,1.414-3.111,2.119-4.588,2.119h-3.605
			c-2.322,0-4.195-0.828-5.619-2.484c-1.422-1.654-2.135-3.822-2.135-6.502c0-4.051,1.396-7.674,4.193-10.87
			c2.795-3.196,5.953-4.794,9.477-4.794c2.699,0,4.672,0.938,5.916,2.815c1.057-1.58,2.438-2.372,4.146-2.372
			c0.928,0,1.703,0.295,2.326,0.887c0.621,0.59,0.934,1.318,0.934,2.183c0,0.591-0.17,1.298-0.508,2.12l-0.348,0.854L179.428,129.1z
			 M167.941,129.258h0.791c1.729,0,2.881-0.705,3.449-2.119l2.215-5.475c0.297-0.717,0.443-1.318,0.443-1.805
			c0-0.568-0.279-1.064-0.838-1.486c-0.561-0.422-1.23-0.633-2.01-0.633c-1.541,0-3.039,0.896-4.494,2.689s-2.184,3.65-2.184,5.57
			C165.314,128.172,166.189,129.258,167.941,129.258z"/>
		<path fill="#FFFFFF" d="M211.547,129.1h3.797c2.68,0,4.02,0.939,4.02,2.816c0,1.289-0.475,2.289-1.424,3.006
			c-0.949,0.719-2.258,1.076-3.924,1.076h-6.613c-1.289,0-2.369-0.389-3.244-1.17s-1.314-1.762-1.314-2.943
			c0-0.715,0.297-1.793,0.887-3.227l2.785-6.898c0.295-0.717,0.453-1.297,0.473-1.74c0.021-0.506-0.184-0.938-0.615-1.297
			c-0.434-0.359-0.988-0.537-1.66-0.537c-2.174,0-3.926,1.635-5.254,4.904l-3.734,9.176c-1.119,2.785-2.783,4.178-5,4.178
			c-0.908,0-1.676-0.275-2.309-0.824c-0.635-0.547-0.949-1.223-0.949-2.025c0-0.59,0.168-1.297,0.506-2.119l0.348-0.854
			l6.393-15.761c0.822-2.046,2.225-3.068,4.209-3.068c1.623,0,2.785,0.717,3.48,2.151c2.258-1.729,4.408-2.594,6.455-2.594
			c1.982,0,3.619,0.57,4.906,1.709c1.285,1.139,1.928,2.584,1.928,4.334c0,0.971-0.23,2.037-0.695,3.195L211.547,129.1z"/>
		<path fill="#FFFFFF" d="M232.338,129.1h7.973c2.658,0,3.988,0.939,3.988,2.816c0,1.289-0.471,2.289-1.408,3.006
			c-0.939,0.719-2.252,1.076-3.939,1.076h-14.746c-1.309,0-2.348-0.326-3.119-0.98c-0.77-0.652-1.154-1.541-1.154-2.658
			c0-1.076,0.707-2.299,2.121-3.67l10.346-9.969l-3.512,0.127h-0.791c-2.299,0-3.449-0.949-3.449-2.848
			c0-1.182,0.453-2.178,1.361-2.99c0.906-0.813,2.014-1.219,3.322-1.219h0.791h9.84c2.934,0,4.398,1.244,4.398,3.734
			c0,1.287-0.664,2.584-1.992,3.891L232.338,129.1z"/>
		<path fill="#FFFFFF" d="M267.43,129.1h3.482c2.658,0,3.986,0.928,3.986,2.785c0,1.287-0.475,2.295-1.424,3.021
			c-0.949,0.729-2.258,1.092-3.924,1.092H265.5c-1.813,0-3.049-0.705-3.701-2.119c-1.582,1.414-3.113,2.119-4.588,2.119h-3.609
			c-2.32,0-4.191-0.828-5.617-2.484c-1.422-1.654-2.135-3.822-2.135-6.502c0-4.051,1.396-7.674,4.193-10.87
			c2.795-3.196,5.953-4.794,9.477-4.794c2.699,0,4.672,0.938,5.918,2.815c1.053-1.58,2.436-2.372,4.145-2.372
			c0.93,0,1.705,0.295,2.326,0.887c0.621,0.59,0.934,1.318,0.934,2.183c0,0.591-0.17,1.298-0.506,2.12l-0.35,0.854L267.43,129.1z
			 M255.943,129.258h0.791c1.73,0,2.879-0.705,3.449-2.119l2.215-5.475c0.295-0.717,0.443-1.318,0.443-1.805
			c0-0.568-0.279-1.064-0.838-1.486s-1.23-0.633-2.01-0.633c-1.539,0-3.037,0.896-4.494,2.689c-1.455,1.793-2.182,3.65-2.182,5.57
			C253.318,128.172,254.193,129.258,255.943,129.258z"/>
	</g>
</g>
</svg>
