<?xml version="1.0" encoding="utf-8"?>
<!-- Generator: Adobe Illustrator 16.0.0, SVG Export Plug-In . SVG Version: 6.00 Build 0)  -->
<!DOCTYPE svg PUBLIC "-//W3C//DTD SVG 1.1//EN" "http://www.w3.org/Graphics/SVG/1.1/DTD/svg11.dtd">
<svg version="1.1" id="Layer_1" xmlns="http://www.w3.org/2000/svg" xmlns:xlink="http://www.w3.org/1999/xlink" x="0px" y="0px"
	 width="320px" height="120px" viewBox="0 0 320 120" enable-background="new 0 0 320 120" xml:space="preserve">
<g>
	<path fill="none" d="M313.068,43.565c0.002-0.018,0.004-0.035,0.006-0.053c-0.008,0.011-0.015,0.023-0.022,0.035
		C313.058,43.553,313.063,43.56,313.068,43.565z"/>
	<path fill="none" d="M194.367,73.688c-0.146,0.212-0.3,0.419-0.45,0.629C194.137,74.16,194.354,73.904,194.367,73.688z"/>
	<path fill="none" d="M308.847,42.312c0.381-0.317,0.762-0.632,1.041-1.05c-0.005,0.003-0.009,0.007-0.014,0.01
		C309.532,41.62,309.189,41.966,308.847,42.312z"/>
	<path fill="none" d="M309.888,41.262c0.374-0.246,0.69-0.561,1-0.881c-0.328,0.287-0.655,0.574-0.983,0.861
		C309.899,41.25,309.893,41.255,309.888,41.262z"/>
	<path fill="none" d="M309.904,46.398c-0.233-0.449-0.672-0.709-0.994-1.076c0.33,0.358,0.66,0.718,0.99,1.076
		C309.901,46.398,309.903,46.398,309.904,46.398z"/>
	<polygon fill="none" points="309.322,43.668 309.229,43.692 309.234,43.703 	"/>
	<path fill="#E86B24" d="M216.126,44.669c0.705-1.548,3.243-3.029,1.842-4.599c-1.39-1.556-4.06-0.997-6.203-0.668
		c-1.727,0.266-2.976,1.387-4.143,2.61c-0.631,0.661-1.014,1.521-2.15,0.153c-2.983-3.595-6.741-2.12-10.022-0.652
		c-7.35,3.287-12.068,9.241-15.213,16.475c-1.07,2.461-2.059,4.915-4.003,6.821c-0.8,0.784-1.552,2.224-2.769,1.759
		c-1.727-0.661-0.758-2.367-0.529-3.479c2.002-9.723,6.135-18.556,11.234-27.03c2.351-3.907,5.078-5.36,9.742-4.486
		c7.473,1.4,14.96,0.941,21.903-2.626c2.233-1.146,4.499-2.837,3.904-5.764c-0.52-2.553-2.86-3.463-5.246-3.982
		c-8.896-1.935-17.438-0.506-24.929,4.302c-4.236,2.719-7.604,2.51-11.937,0.991c-13.155-4.611-26.124-9.948-40.119-11.708
		c-6.693-0.841-13.366-0.949-19.502,2.331c-6.36,3.4-6.592,9.948-0.599,13.904c3.558,2.35,7.604,3.279,11.832,3.399
		c0.559,0.016,1.127-0.288,1.689-0.444c-0.502-0.343-0.983-0.722-1.509-1.022c-2.188-1.256-4.659-2.448-3.902-5.584
		c0.702-2.906,3.376-3.42,5.825-3.947c1.127-0.243,2.322-0.264,3.483-0.244c15.135,0.25,29.46,4.938,44.08,8.024
		c2.05,0.433,1.54,1.12,0.578,2.172c-3.044,3.329-5.653,6.973-7.936,10.865c-0.222,0.378-0.539,2.003-1.554,0.669
		c-4.381-5.758-8.873-2.409-12.953,0.12c-4.914,3.048-8.113,7.818-10.777,12.883c-1.629,3.097-3.187,6.236-5.609,8.809
		c-0.99,1.051-2.115,2.779-3.628,2.052c-1.929-0.928-0.458-2.775,0.021-3.944c1.951-4.76,4.248-9.378,6.249-14.12
		c0.991-2.349,3.054-5.003,0.647-7.366c-2.262-2.221-5.354-1.44-8.023-0.496c-5.029,1.779-8.668,5.456-12.029,9.431
		c-0.33,0.978-0.762,1.86-1.937,2.027c0.001,0.005,0.001,0.011,0.002,0.016c-0.013,0.005-0.026,0.008-0.038,0.012
		c-0.14,0.146-0.279,0.292-0.418,0.438c0.021-0.101,0.01-0.243,0.071-0.294c0.093-0.075,0.226-0.103,0.347-0.144
		c0.008-0.008,0.016-0.017,0.024-0.026c0.004,0,0.007-0.002,0.012-0.002c-0.188-1.159-0.064-2.226,0.901-3.046
		c0.076-0.661,0.147-1.323,0.229-1.983c0.419-3.381,0.172-6.338-3.908-7.434c-4.397-1.181-3.484,2.945-4.857,4.75
		c-0.585,0.77-0.821,1.803-1.221,2.714c-2.81,6.403-5.774,12.725-10.568,17.947c-0.98,1.067-2.251,2.608-3.767,1.828
		c-1.709-0.879-0.563-2.646-0.222-3.996c1.64-6.482,4.466-12.479,7.559-18.375c0.821-1.566,3.158-3.527,2.09-4.646
		c-1.514-1.586-4.38-1.066-6.553-0.278c-1.509,0.547-2.808,1.698-4.164,2.631c-0.628,0.433-1.069,1.387-1.877,0.154
		c-2.779-4.234-6.626-2.666-9.731-1.076c-10.846,5.55-16.96,14.606-18.169,26.765c-0.317,3.196,0.213,6.406,3.456,8.22
		c3.223,1.803,6.48,1.271,9.493-0.463c1.552-0.894,2.979-2.166,4.137-3.54c1.493-1.772,2.035-2.456,2.474,0.607
		c0.667,4.656,4.001,5.204,7.868,4.243c3.964-0.984,6.194-4.252,8.853-6.941l-0.06-0.078c0.298-0.337,0.596-0.674,0.894-1.011l0,0
		c-0.013-0.337,0.087-0.638,0.299-0.901l0,0c0.306-0.653,0.612-1.308,0.918-1.961c0.195-0.747,0.576-1.752,1.359-1.378
		c0.755,0.359,0.027,0.962-0.506,1.275l0,0l0,0c0.023,0.864-0.2,1.596-1.064,1.982c-0.031,0.321-0.062,0.642-0.092,0.962
		c-0.216,0.357-0.432,0.714-0.648,1.07c-0.1,0.319-0.199,0.639-0.299,0.958c-0.604,1.708-1.254,3.402-1.79,5.131
		c-0.203,0.656-0.742,1.41,0.744,1.696c4.825,0.93,10.527-2.165,12.298-6.799c2.616-6.849,5.72-13.443,10.593-19.033
		c0.979-1.121,2.428-2.703,3.71-1.962c1.739,1.005,0.035,2.687-0.474,3.89c-2.195,5.193-4.67,10.266-5.467,15.95
		c-0.34,2.432-0.271,4.735,1.719,6.381c2.184,1.806,4.745,1.35,7.076,0.331c2.939-1.284,5.207-3.509,7.238-5.97
		c0.613-0.745,1.457-2.077,1.962-1.977c1.087,0.218,0.446,1.604,0.69,2.47c1.503,5.35,5.391,7.425,10.748,5.58
		c2.402-0.827,4.49-2.266,6.005-4.289c1.384-1.849,1.897-2.231,2.724,0.431c1.567,5.044,5.308,6.092,9.387,2.693
		c1.621-1.352,2.775-3.26,4.173-4.888c0.411-0.478,0.931-0.862,1.399-1.289c0.176,0.578,0.342,1.158,0.526,1.733
		c2.043,6.362,7.118,8.135,12.681,4.42c1.077-0.72,2.131-1.477,3.195-2.217c0.104-0.258,0.207-0.516,0.311-0.773
		c0.15,0.157,0.457,0.397,0.426,0.459c-0.076,0.146-0.171,0.281-0.266,0.418c-0.013,0.216-0.23,0.472-0.45,0.629
		c-1.013,3.677-1.917,7.387-3.07,11.019c-0.96,3.023-2.346,5.879-4.884,7.97c-3.797,3.128-9.939,3.275-12.852,0.328
		c-3.03-3.067-2.42-6.459,2.021-11.126c0.318-0.335,0.712-0.599,1.069-0.896c-0.551-0.278-1.076-0.717-1.657-0.809
		c-5.72-0.903-11.817,2.508-12.777,7.093c-1.161,5.553,2.249,9.874,9.065,11.485c14.791,3.497,26.507-3.734,31.909-19.854
		c2.372-7.08,4.242-14.332,7.31-21.172c0.285-1.528,0.723-2.992,1.793-4.185C212.668,50.729,214.687,47.831,216.126,44.669z
		 M201.618,21.865c0.958-0.225,1.946-0.323,2.614-0.43c2.367,0.123,4.771,0.392,5.229,2.554c0.502,2.368-1.95,3.14-3.744,3.913
		c-0.893,0.384-1.918,0.469-2.89,0.66c-3.839,0.756-7.649,1.125-11.272-0.886C194.213,24.533,197.682,22.784,201.618,21.865z
		 M92.166,50.963c-2.15,5.503-3.063,11.583-7.379,16.092c-1.082,1.131-2.381,1.937-3.963,1.47c-1.758-0.518-1.934-2.07-1.872-4.607
		c0.973-5.757,3.282-11.846,8.727-16.288c1.258-1.026,2.937-2.098,4.504-0.814C93.587,47.964,92.688,49.625,92.166,50.963z
		 M167.047,50.991c-1.98,5.217-2.475,11.051-6.265,15.519c-1.209,1.426-2.842,2.663-4.737,1.97
		c-2.059-0.753-1.855-2.868-1.867-4.462c1.038-6.226,2.872-11.832,7.564-16.05c1.25-1.123,2.828-2.243,4.473-1.398
		C168.025,47.498,167.631,49.451,167.047,50.991z M202.203,51.118c-2.004,5.251-3.056,10.938-6.754,15.424
		c-1.178,1.428-2.758,2.654-4.77,1.921c-1.658-0.604-1.77-2.249-1.73-4.599c0.978-5.769,3.064-11.811,8.478-16.13
		c1.29-1.029,3.005-2.116,4.584-1.112C203.815,47.77,202.778,49.611,202.203,51.118z"/>
	<path fill="#E86B24" d="M124.367,94.952c-5.025-3.734-10.813-5.85-16.748-7.534c-16.893-4.793-34.222-6.863-51.676-8.16
		c-1.317-0.098-5.11,1.093-2.34-2.792c7.441-10.432,11.68-22.357,15.758-34.322c0.926-2.715,2.366-4.022,5.043-4.666
		c7.396-1.778,14.133-5.049,19.765-10.172c3.678-3.345,7.566-7.026,5.684-12.812c-1.074-3.299-7.195-4.749-13.531-3.774
		c-11.591,1.785-18.154,9.691-23.403,19.164c-4.047,7.303-4.685,7.59-12.508,4.374c-1.377-0.565-2.734-1.248-3.976-2.066
		c-5.296-3.494-8.017-8.794-6.648-13.405c1.656-5.578,6.267-6.253,11.163-6.275c0.544-0.003,1.516,0.474,1.438-0.59
		c-0.029-0.412-0.87-0.895-1.432-1.119c-3.75-1.499-7.619-2.347-11.689-1.878c-5.666,0.652-11.213,1.938-13.06,8.188
		c-1.918,6.496,1.729,11.166,6.382,15.139c1.005,0.857,2.155,1.573,3.313,2.222c5.93,3.323,12.329,4.999,19.106,4.964
		c2.651-0.015,3.137,0.625,2.137,3.134c-4,10.033-7.895,20.11-11.68,30.227c-1.574,4.208-3.803,6.521-8.8,5.641
		c-3.222-0.566-6.653-0.177-9.968,0.076c-5.659,0.433-11.265,1.272-16.23,4.324c-2.044,1.256-3.781,2.849-3.514,5.58
		c0.271,2.761,2.422,3.842,4.604,4.717c1.374,0.552,2.868,0.959,4.339,1.089c9.396,0.831,18.971-0.018,25.938-6.453
		c6.451-5.958,12.895-5.393,20.132-4.028c1.308,0.246,2.634,0.393,3.941,0.64c14.072,2.656,28.113,5.459,40.719,12.738
		c2.525,1.459,6.021,3.174,5.165,6.582c-0.963,3.836-4.865,2.398-7.721,2.509c-0.758,0.272-1.715,0.153-2.133,1.089
		c6.092,3.893,12.672,4.84,19.603,2.999c3.481-0.924,6.698-2.577,7.402-6.548C129.641,99.813,127.303,97.133,124.367,94.952z
		 M84.283,14.852c3.607-1.556,5.903-0.345,5.875,3.098c-0.05,5.875-11.015,16.952-16.721,16.938
		c-0.804-0.002-1.072-0.117-1.097-1.026C72.231,29.742,80.499,16.483,84.283,14.852z M36.686,85.918
		c-3.595,3.637-7.958,5.35-13.105,4.726c-1.673-0.202-3.403-0.513-3.732-2.632c-0.302-1.943,0.816-3.161,2.359-4.012
		c3.919-2.161,8.228-2.476,12.626-2.564c1.509,0.35,3.826-0.82,4.495,0.688C40.044,83.739,37.797,84.793,36.686,85.918z"/>
	<path fill="#E86B24" d="M283.985,51.229c-0.119-1.131,0.012-2.195,0.852-3.068c0.024-0.996,0.078-1.994,0.066-2.99
		c-0.036-3.174-1.815-4.834-4.777-5.475c-3.582-0.773-3.113,2.38-3.681,4.101c-1.793,5.438-4.407,10.424-7.824,14.953
		c-2.917,3.867-6.204,7.443-11.027,9.04c-4.249,1.407-7.392-0.316-7.303-4.586c0.141-6.714,2.628-12.651,7.781-17.194
		c1.077-0.948,2.573-2.122,4.024-1.099c1.764,1.243,0.247,2.819-0.4,3.941c-1.151,1.996-2.607,3.845-4.12,5.598
		c-1.441,1.671-3.115,3.141-4.688,4.698c2.74,0.593,5.284-0.306,7.799-1.144c1.243-0.414,2.438-1.081,3.531-1.815
		c4.753-3.19,6.651-9.065,4.254-12.938c-2.225-3.594-7.438-4.444-12.6-1.878c-5.733,2.852-9.588,7.612-12.622,13.086
		c-2.017,3.641-3.961,7.328-6.678,10.501c-1.054,1.229-2.496,2.769-4.221,1.713c-1.464-0.896-0.842-2.77-0.402-4.173
		c1.768-5.643,5.001-10.458,8.655-15.035c1.459-1.828,4.785-3.23,3.063-6.103c-2.071-3.456-4.659,0.134-7.041,0.294
		c-0.316,0.021-0.609,0.285-0.93,0.347c-2.506,0.486-5.195,1.313-3.56-3.123c0.74-2.006,0.348-4.096-1.817-5.132
		c-2.255-1.078-4.276-0.155-5.86,1.507c-2.036,2.136-2.568,5.014-1.332,7.429c1.418,2.768-0.056,3.786-1.673,5.339
		c-2.746,2.639-6.772,3.71-8.758,7.242c-0.269,1.355-0.537,2.71-0.806,4.065c6.162-1.944,10.018-6.836,14.188-11.265
		c1.486-1.578,3.434-2.226,4.82-1.297c0.758,0.508-1.345,2.127-2.23,3.094c-4.18,4.563-8.144,9.257-10.064,15.266
		c-1.357,4.247-1.207,8.509,2.724,11.257c3.882,2.714,7.871,1.609,11.509-1.148c2.023-1.533,3.593-3.434,5.068-5.454
		c0.376-0.516,0.883-1.304,1.343-1.313c0.957-0.019,0.394,0.954,0.535,1.476c1.62,5.954,5.177,8.271,11.363,7.77
		c6.293-0.511,10.612-4.258,14.757-8.418l-0.054-0.029c0.324-0.325,0.648-0.65,0.973-0.976l0.001-0.001
		c-0.025-0.316,0.029-0.619,0.166-0.905h0.001c0.193-0.784,0.674-1.764,1.409-1.41c0.718,0.344,0.034,1.023-0.544,1.348
		c-0.076,0.326-0.152,0.651-0.228,0.978c-0.228,0.342-0.455,0.684-0.683,1.025c-0.087,0.321-0.174,0.644-0.261,0.965
		c-0.671,1.865-1.384,3.717-1.992,5.603c-0.239,0.742-1.441,2.205,0.336,2.133c3.298-0.135,6.678-0.5,9.816-1.453
		c1.993-0.605,1.759-3.313,2.451-5.1c2.773-7.156,5.839-14.139,11.381-19.677c0.901-0.899,2.079-2.293,3.391-1.385
		c1.467,1.015,0.063,2.481-0.394,3.549c-2.222,5.189-4.735,10.28-5.627,15.913c-0.417,2.635-0.609,5.532,2.214,7.118
		c2.562,1.438,5.217,0.767,7.546-0.736c5.75-3.709,9.442-9.252,12.927-14.942c0.404-0.66,0.886-1.446-0.135-2.146
		c-1.219-0.835-1.751,0.016-2.373,0.818c-1.421,1.835-2.764,3.745-4.332,5.445c-0.947,1.026-2.196,2.632-3.727,1.548
		c-1.213-0.859-0.348-2.527,0.154-3.685c2.114-4.867,4.425-9.65,6.509-14.53c1.018-2.384,2.824-5.218,0.58-7.433
		c-2.351-2.32-5.593-1.34-8.446-0.328c-4.541,1.609-7.589,5.247-11.052,8.313C285.505,50.199,285.139,51.124,283.985,51.229
		c0.002,0.024,0.003,0.049,0.006,0.073c-0.038,0.039-0.075,0.077-0.113,0.116c-0.069,0.369-0.138,0.738-0.207,1.107
		c-0.175-0.12-0.349-0.24-0.523-0.359c0.243-0.25,0.487-0.499,0.73-0.748"/>
	<path fill="#F09757" d="M309.901,41.245c-0.009,0.009-0.018,0.018-0.027,0.027c0.005-0.003,0.009-0.007,0.014-0.01
		c0.005-0.007,0.012-0.013,0.017-0.02C309.903,41.243,309.902,41.244,309.901,41.245z"/>
	<path fill="#E86B24" d="M211.844,54.172c-1.07,1.192-1.508,2.656-1.793,4.185c0.614,0.324,1.229,0.649,1.842,0.974
		c0.269-1.355,0.537-2.71,0.806-4.065C212.413,54.9,212.128,54.536,211.844,54.172z"/>
	<path fill="#F5C19B" d="M121.938,52.318c-0.001-0.005-0.001-0.011-0.002-0.016c-0.005,0-0.008,0.002-0.012,0.002L121.938,52.318z"
		/>
	<path fill="#E86B24" d="M121.937,52.302c1.175-0.167,1.606-1.049,1.937-2.027c-0.345-0.34-0.689-0.68-1.035-1.02
		C121.872,50.076,121.749,51.144,121.937,52.302z"/>
	<path fill="#E86B24" d="M283.985,51.229c1.153-0.105,1.52-1.031,1.928-1.912c-0.358-0.386-0.718-0.771-1.076-1.156
		C283.997,49.035,283.866,50.099,283.985,51.229z"/>
	<path fill="#FFF5EF" d="M283.991,51.303c-0.003-0.024-0.004-0.049-0.006-0.073c-0.026,0.002-0.048,0.01-0.074,0.012L283.991,51.303
		z"/>
	<path fill="#E86B24" d="M194.633,73.271c0.031-0.062-0.275-0.302-0.426-0.459c-0.104,0.258-0.207,0.516-0.311,0.773
		c-0.181,0.25-0.174,0.493,0.021,0.732c0.15-0.21,0.304-0.417,0.45-0.629C194.462,73.552,194.557,73.416,194.633,73.271z"/>
	<path fill="#E86B24" d="M106.862,66.329c0.533-0.313,1.261-0.916,0.506-1.275c-0.783-0.374-1.164,0.631-1.359,1.378
		C106.288,66.355,106.572,66.321,106.862,66.329L106.862,66.329z"/>
	<path fill="#E86B24" d="M105.798,68.312c0.864-0.387,1.088-1.118,1.064-1.982l0,0c-0.29-0.008-0.574,0.026-0.854,0.103
		c-0.306,0.653-0.612,1.308-0.918,1.961C105.331,68.4,105.566,68.374,105.798,68.312z"/>
	<path fill="#E86B24" d="M105.058,70.344c0.217-0.356,0.433-0.713,0.648-1.07l-0.457-0.006l-0.457,0.026l0,0l0,0
		c-0.298,0.337-0.596,0.674-0.894,1.011C104.285,70.317,104.672,70.331,105.058,70.344z"/>
	<path fill="#F09757" d="M121.482,52.769c0.139-0.146,0.278-0.292,0.418-0.438c-0.121,0.041-0.254,0.069-0.347,0.144
		C121.492,52.525,121.504,52.668,121.482,52.769z"/>
	<path fill="#F09757" d="M121.9,52.331c0.012-0.004,0.025-0.007,0.038-0.012l-0.014-0.014
		C121.916,52.313,121.908,52.322,121.9,52.331z"/>
	<path fill="#E86B24" d="M105.249,69.268l0.457,0.006c0.03-0.32,0.061-0.641,0.092-0.962c-0.231,0.063-0.467,0.089-0.707,0.081l0,0
		c-0.212,0.264-0.312,0.564-0.299,0.901l0,0L105.249,69.268z"/>
	<path fill="#E86B24" d="M268.4,65.976c-0.735-0.354-1.216,0.626-1.409,1.41c0.287-0.048,0.575-0.069,0.865-0.063
		C268.435,66.999,269.118,66.319,268.4,65.976z"/>
	<path fill="#E86B24" d="M283.671,52.526c0.069-0.37,0.138-0.738,0.207-1.107c-0.243,0.249-0.487,0.499-0.73,0.748
		C283.322,52.286,283.496,52.406,283.671,52.526z"/>
	<path fill="#E86B24" d="M283.878,51.419c0.038-0.039,0.075-0.078,0.113-0.116l-0.08-0.062
		C283.9,51.3,283.889,51.359,283.878,51.419z"/>
	<path fill="#E86B24" d="M266.946,69.326c0.228-0.342,0.455-0.684,0.683-1.025c-0.268-0.006-0.536-0.008-0.805-0.008
		c0-0.001,0-0.001,0-0.002l-0.001,0.001c-0.324,0.325-0.648,0.65-0.973,0.976C266.216,69.287,266.581,69.307,266.946,69.326z"/>
	<path fill="#E86B24" d="M267.629,68.301c0.075-0.326,0.151-0.651,0.228-0.978c-0.29-0.007-0.578,0.015-0.865,0.063h-0.001
		c-0.137,0.286-0.191,0.589-0.166,0.905c0,0.001,0,0.001,0,0.002C267.093,68.293,267.361,68.295,267.629,68.301z"/>
</g>
</svg>
