<?xml version="1.0" encoding="utf-8"?>
<!-- Generator: Adobe Illustrator 16.0.0, SVG Export Plug-In . SVG Version: 6.00 Build 0)  -->
<!DOCTYPE svg PUBLIC "-//W3C//DTD SVG 1.1//EN" "http://www.w3.org/Graphics/SVG/1.1/DTD/svg11.dtd">
<svg version="1.1" id="Layer_1" xmlns="http://www.w3.org/2000/svg" xmlns:xlink="http://www.w3.org/1999/xlink" x="0px" y="0px"
	 width="500px" height="500px" viewBox="0 0 500 500" enable-background="new 0 0 500 500" xml:space="preserve">
<g>
	<path fill-rule="evenodd" clip-rule="evenodd" fill="#FCB216" d="M249.999,461.105c124.544,0,226.123-101.577,226.123-226.121
		c0-124.544-101.579-226.123-226.123-226.123S23.878,110.44,23.878,234.984C23.878,359.528,125.455,461.105,249.999,461.105z"/>
	<g>
		<g>
			<path fill-rule="evenodd" clip-rule="evenodd" fill="#904C21" d="M69.072,388.73c13.879-56.532,35.283-139.24,46.625-129.064
				c15.419,13.834,47.756-186.173,68.096-157.444c20.341,28.729,55.45,145.756,69.38,134.737
				c13.932-11.017,46.125,64.363,51.264,54.788c4.146-7.729,21.007-60.628,40.669-32.861
				c15.002,21.185,39.489,138.376,57.227,120.347c4.855-4.937,11.651,4.306,20.272,20.842
				c-45.09,61.785-92.852,82.838-172.605,82.838C170.246,482.912,177.074,383.689,69.072,388.73z"/>
			<path fill-rule="evenodd" clip-rule="evenodd" fill="#BA6528" d="M382.076,317.547c18.527,27.841,9.565,75.659,19.214,65.853
				c4.856-4.937,11.651,4.306,20.271,20.843c-45.087,61.784-106.563,78.67-171.563,78.67c-64.997,0-92.155-13.455-129.94-36.755
				c5.528-12.823,12.548-26.05,17.26-36.981c8.016-18.596,20.038-11.953,29.389-27.893c9.353-15.94,18.704-10.626,25.383,0
				c6.678,10.626,25.38-7.97,40.076-34.536C265.158,347.646,321.701,334.856,382.076,317.547z"/>
		</g>
		<path fill-rule="evenodd" clip-rule="evenodd" fill="#B3682C" d="M69.072,388.73c13.879-56.532,35.283-139.24,46.625-129.064
			c15.417,13.834,47.756-186.173,68.096-157.444c20.341,28.729,55.45,145.756,69.38,134.737
			c13.932-11.017,46.125,64.363,51.264,54.788c4.146-7.729,21.007-60.628,40.669-32.861c15.002,21.185,33.933,145.67,51.67,127.641
			c4.854-4.937,11.651,4.304,20.272,20.84c-45.09,61.787-87.295,75.546-167.049,75.546
			C170.246,482.912,150.464,362.402,69.072,388.73z"/>
		<path fill-rule="evenodd" clip-rule="evenodd" fill="#A45B26" d="M117.188,261.141c13.292,22.495,21.064,56.498,36.401,37.07
			c15.336-19.426,13.292-26.583,27.606,2.046c14.314,28.628,33.741,0,39.875,12.27c6.135,12.269,29.652-39.876,66.461-4.091
			c33.224,32.302-79.315,144.557-101.551,166.115c-50.759-13.529-56.212-102.476-116.91-85.82
			c13.879-56.532,35.283-139.241,46.625-129.064c0.29,0.26,0.594,0.422,0.902,0.535C116.797,260.52,116.989,260.818,117.188,261.141
			z"/>
		<path fill-rule="evenodd" clip-rule="evenodd" fill="#904C21" d="M386.556,331.409c18.526,27.841,4.393,60.755,14.039,50.948
			c2.774-2.818,11.385,7.533,19.994,21.227c-45.111,61.567-105.677,79.328-170.59,79.328c-64.913,0-92.155-13.455-129.94-36.755
			c5.528-12.823,12.548-26.05,17.26-36.981c8.016-18.596,20.038-11.953,29.389-27.893c9.353-15.94,18.704-10.626,25.383,0
			c6.678,10.626,24.563-8.378,39.258-34.944c11.979-9.879,29.244,0.51,49.994-19.424
			C299.022,309.928,360.243,354.208,386.556,331.409z"/>
		<path fill-rule="evenodd" clip-rule="evenodd" fill="#D6EEEC" d="M153.181,156.912c10.378-38.362,22.09-66.728,30.612-54.69
			c20.341,28.729,55.45,145.756,69.38,134.737c13.932-11.017,46.125,64.363,51.264,54.788c4.146-7.729,21.007-60.628,40.669-32.861
			c50.805,71.743,74.485,123.458,79.254,148.803c-34.658-1.052-7.158-20.068-23.579-26.44c-9.695-3.763,7.155-23.678-5.629-21.861
			c-12.785,1.816-12.904,3.148-25.571-9.988c-12.524-12.989-22.626-2.383-34.488-12.429c-14.649-12.405-22.561,4.263-32.265,0.226
			c-14.919-6.206-19.468-2.139-25.867,12.44c-7.589,17.286-12.75,19.305-19.727,2.113c-2.189-5.398-12.587-2.73-17.086,0.162
			c-8.895,5.719-18.708,10.511-11.205-5.236c6.12-12.842,10.046-9.988,21.918-9.08c11.871,0.907,13.803-9.239,19.756-19.067
			c9.079-14.985,22.778-10.915,32.767-3.424c5.899,4.424,11.06,2.949,19.908,1.474c8.849-1.474,14.009,5.899,25.807,14.011
			c11.799,8.11,22.121-2.949,13.272-3.687c-8.847-0.736-6.636-13.273-13.272-16.223c-6.636-2.95-5.16-17.697-6.636-11.797
			c-1.476,5.899-12.946,29.001-11.57-2.638c1.374-31.637-13.563-15.09-26.136-2.75c-4.357,4.276-6.753-3.442-17.367,0.516
			c-7.305,2.724-10.046-22.7-20.092-16.343c-10.044,6.356-10.958-8.172-10.958-23.609c0-15.436-8.219,2.726-17.351,22.7
			c-9.132,19.976-10.958-21.791-9.132-39.043c1.826-17.253-5.481-38.138-16.439-37.229c-10.958,0.908-4.565-31.78-13.697-31.78
			c-9.133,0-8.219-17.251-15.526-9.081c-7.304,8.172-22.182,25.853-17.421,4.553S166.728,148.236,153.181,156.912z"/>
	</g>
	<g>
		<polygon fill-rule="evenodd" clip-rule="evenodd" fill="#10816A" points="132.307,424.404 149.864,448.464 44.669,448.464 
			62.225,424.404 50.965,424.404 71.817,395.826 61.565,395.826 82.969,366.491 71.6,366.491 97.265,331.314 122.932,366.491 
			111.561,366.491 132.966,395.826 122.718,395.826 143.569,424.404 		"/>
		<polygon fill-rule="evenodd" clip-rule="evenodd" fill="#12977C" points="195,457.092 212.558,481.153 107.363,481.153 
			124.919,457.092 113.66,457.092 134.511,428.514 124.259,428.514 145.663,399.179 134.293,399.179 159.959,364.003 
			185.626,399.179 174.256,399.179 195.66,428.514 185.41,428.514 206.262,457.092 		"/>
		<polygon fill-rule="evenodd" clip-rule="evenodd" fill="#10816A" points="430.235,424.402 447.791,448.464 342.596,448.464 
			360.151,424.402 348.894,424.402 369.744,395.826 359.494,395.826 380.896,366.49 369.528,366.49 395.191,331.313 420.858,366.49 
			409.489,366.49 430.893,395.826 420.645,395.826 441.495,424.402 		"/>
		<polygon fill-rule="evenodd" clip-rule="evenodd" fill="#12977C" points="377.169,457.092 394.725,481.153 289.53,481.153 
			307.086,457.092 295.827,457.092 316.68,428.516 306.428,428.516 327.83,399.181 316.462,399.181 342.127,364.004 
			367.793,399.181 356.423,399.181 377.828,428.516 367.578,428.516 388.429,457.092 		"/>
		<polygon fill-rule="evenodd" clip-rule="evenodd" fill="#1CB092" points="285.041,467.079 302.598,491.139 197.402,491.139 
			214.959,467.079 203.699,467.079 224.551,438.501 214.3,438.501 235.702,409.166 224.334,409.166 249.999,373.989 
			275.664,409.166 264.295,409.166 285.7,438.501 275.452,438.501 296.301,467.079 		"/>
	</g>
	<path fill="#FFFFFF" d="M177.599,46.589c0.001-2.221,3.926-2.168,3.924,0.051l-0.052,56.069c-0.002,2.221-3.926,2.167-3.924-0.052
		L177.599,46.589z"/>
	<path fill-rule="evenodd" clip-rule="evenodd" fill="#DB397A" d="M247.223,49.328c-39.136,14.35-50.544-18.206-69.574,3.118
		l-0.027,30.747c19.029-21.325,30.438,11.231,69.574-3.118c-9.258-4.683-12.344-7.167-17.512-12.68
		C236.291,62.403,242.144,57.173,247.223,49.328z"/>
</g>
</svg>
