<?xml version="1.0" encoding="utf-8"?>
<!-- Generator: Adobe Illustrator 16.0.0, SVG Export Plug-In . SVG Version: 6.00 Build 0)  -->
<!DOCTYPE svg PUBLIC "-//W3C//DTD SVG 1.1//EN" "http://www.w3.org/Graphics/SVG/1.1/DTD/svg11.dtd">
<svg version="1.1" xmlns="http://www.w3.org/2000/svg" xmlns:xlink="http://www.w3.org/1999/xlink" x="0px" y="0px" width="252px"
	 height="94px" viewBox="0 0 252 94" enable-background="new 0 0 252 94" xml:space="preserve">
<g id="Layer_2" display="none">
	<rect x="-2.75" y="-1.026" display="inline" fill="#76B7A3" width="257.5" height="96.053"/>
</g>
<g id="Layer_1">
	<g>
		<path fill-rule="evenodd" clip-rule="evenodd" fill="#FFFFFF" d="M235.786,78.808c-0.529,0.85-1.347,1.055-2.287,1.157
			c-1.954,0.21-3.91,0.324-5.871,0.262c-1.437-0.047-2.871-0.163-4.284-0.432c-0.919-0.176-1.369-0.826-1.371-1.95
			c-0.002-4.839-0.001-9.677-0.001-14.517c0-2.157-0.032-4.314,0.007-6.472c0.054-3.023-0.802-5.82-2.002-8.546
			c-0.396-0.899-0.93-1.749-0.87-2.812c0.059-1.049,0.596-1.922,1.61-2.127c2.796-0.57,5.638-0.779,8.434-0.155
			c3.549,0.793,5.564,3.182,6.364,6.67c0.078,0.337,0.039,0.711,0.271,1.004C235.786,60.197,235.786,69.503,235.786,78.808z"/>
		<path fill-rule="evenodd" clip-rule="evenodd" fill="#FFFFFF" d="M228.096,27.819c1.028,0.254,2.08,0.391,3.101,0.704
			c1.249,0.383,1.973,1.141,2.331,2.406c0.74,2.598,0.682,5.134-0.272,7.662c-0.243,0.646-0.638,1.094-1.273,1.333
			c-3.432,1.292-6.882,1.356-10.351,0.151c-0.869-0.301-1.401-0.862-1.699-1.749c-0.897-2.658-0.902-5.288,0.022-7.936
			c0.28-0.8,0.764-1.316,1.558-1.617c1.001-0.381,2.021-0.657,3.076-0.817c0.134-0.019,0.292,0.021,0.374-0.139
			C226.006,27.819,227.051,27.819,228.096,27.819z"/>
		<path fill-rule="evenodd" clip-rule="evenodd" fill="#FFFFFF" d="M208.583,27.819c0.748,0.181,1.49,0.388,2.245,0.532
			c0.642,0.123,1.212,0.401,1.776,0.698c0.479,0.251,0.802,0.63,0.98,1.159c0.391,1.169,0.664,2.343,0.727,3.592
			c0.082,1.653-0.213,3.216-0.703,4.774c-0.299,0.944-1.056,1.338-1.863,1.594c-3.445,1.088-6.875,1.031-10.254-0.307
			c-0.59-0.234-0.92-0.732-1.131-1.305c-0.93-2.52-0.948-5.045-0.268-7.647c0.4-1.527,1.425-2.149,2.76-2.51
			c0.854-0.231,1.73-0.39,2.596-0.581C206.493,27.819,207.538,27.819,208.583,27.819z"/>
		<path fill-rule="evenodd" clip-rule="evenodd" fill="#FFFFFF" d="M160.584,61.214c0-5.505,0-11.011,0.003-16.518
			c0-1.11,0.854-2.173,1.967-2.234c1.963-0.107,3.937-0.21,5.885,0.165c1.568,0.303,2.875,1.087,3.847,2.363
			c0.295,0.388,0.493,0.411,0.901,0.122c2.494-1.763,5.231-2.761,8.339-2.806c4.511-0.064,8.088,2.459,9.808,6.561
			c0.864,2.062,1.256,4.222,1.271,6.442c0.033,5.031,0.001,10.062,0.039,15.091c0.012,1.723,0.323,3.385,1.302,4.875
			c0.519,0.788,0.334,1.654-0.449,2.27c-2.563,2.02-5.492,2.797-8.726,2.457c-1.535-0.163-2.911-0.678-3.889-1.946
			c-0.957-1.242-1.203-2.709-1.207-4.226c-0.008-2.754,0.011-5.507,0.015-8.26c0.003-2.515-0.073-5.033,0.02-7.545
			c0.104-2.84-1.942-3.342-3.903-2.936c-0.115,0.025-0.229,0.059-0.34,0.098c-1.844,0.631-2.061,0.937-2.061,2.86
			c0,6.479,0,12.957-0.001,19.436c0,1.399-0.36,1.857-1.762,2.108c-3.233,0.581-6.466,0.444-9.692-0.073
			c-0.912-0.148-1.362-0.774-1.364-1.785C160.584,72.227,160.584,66.72,160.584,61.214z"/>
		<path fill-rule="evenodd" clip-rule="evenodd" fill="#FFFFFF" d="M197.955,65.087c0-4.178-0.007-8.352,0.003-12.526
			c0.005-1.798,0.31-3.538,1.167-5.141c1.505-2.81,3.92-4.258,7.044-4.464c2.079-0.138,4.168-0.095,6.241,0.247
			c1.988,0.33,2.795,1.643,2.063,3.546c-0.703,1.829-1.621,3.576-2.087,5.5c-0.396,1.639-0.65,3.293-0.649,4.984
			c0.002,6.879,0.001,13.759,0.001,20.639c0,1.291-0.376,1.798-1.625,1.99c-3.466,0.534-6.942,0.523-10.409,0.021
			c-1.354-0.195-1.747-0.727-1.748-2.13C197.954,73.529,197.955,69.309,197.955,65.087z"/>
		<path fill-rule="evenodd" clip-rule="evenodd" fill="#FFFFFF" d="M122.401,53.02c-0.074-3.398-0.444-6.761-1.57-9.992
			c-1.55-4.446-4.156-8.102-8.34-10.406c-3.169-1.747-6.684-2.375-10.26-2.484c-5.122-0.159-10.246,0.025-15.367,0.139
			c-1.645,0.037-3.435-0.26-4.613,1.389c0,15.477,0,30.954,0,46.431c0.441,0.247,0.722,0.672,1.084,1.007
			c0.181,0.164,0.34,0.302,0.609,0.302c0.616,0.002,1.231,0.044,1.846,0.061c2.49,0.058,4.978,0.165,7.466,0.157
			c4.003-0.018,8.018,0.33,12.008-0.252c2.925-0.425,5.778-1.135,8.265-2.808c4.192-2.819,6.667-6.835,7.883-11.679
			C122.391,60.985,122.49,57.007,122.401,53.02z M107.312,62.813c-0.393,1.357-0.959,2.632-1.983,3.644
			c-1.041,1.033-2.317,1.54-3.775,1.576c-1.588,0.04-3.178,0.029-4.765,0.084c-0.558,0.02-0.719-0.137-0.715-0.706
			c0.024-4.153,0.013-8.308,0.013-12.462c0-4.152,0.015-8.306-0.015-12.459c-0.006-0.641,0.178-0.802,0.796-0.781
			c1.328,0.047,2.657,0.007,3.986,0.016c3.133,0.021,5.063,1.367,6.154,4.311c0.884,2.385,1.117,4.882,1.168,7.4
			C108.241,56.593,108.2,59.743,107.312,62.813z"/>
		<path fill-rule="evenodd" clip-rule="evenodd" fill="#FFFFFF" d="M156.833,53.468c-1.224-4.306-3.838-7.638-7.856-9.736
			c-3.368-1.759-6.994-2.11-10.716-1.684c-6.397,0.731-10.833,4.191-13.083,10.122c-2.21,5.836-2.167,11.891-0.131,17.764
			c1.8,5.195,5.455,8.681,10.906,10.061c0.843,0.213,1.705,0.35,2.557,0.523c1.52,0,3.04,0,4.558,0
			c0.067-0.129,0.194-0.113,0.308-0.129c6.64-0.883,11.104-4.548,13.244-10.822C158.422,64.273,158.358,58.824,156.833,53.468z
			 M144.07,66.401c-0.178,0.591-0.425,1.155-0.776,1.664c-1.258,1.83-3.828,1.836-5.11,0.023c-0.748-1.058-1.041-2.286-1.188-3.528
			c-0.316-2.644-0.353-5.289,0.23-7.911c0.161-0.741,0.412-1.451,0.824-2.098c1.321-2.086,4.111-2.075,5.392,0.038
			c0.86,1.417,1.042,3.022,1.177,4.627c0.057,0.657,0.009,1.324,0.009,1.988C144.686,62.961,144.578,64.704,144.07,66.401z"/>
		<g>
			<path fill-rule="evenodd" clip-rule="evenodd" fill="#FFFFFF" d="M60.646,18.933c-0.739,0-1.481-0.043-2.216,0.011
				C57.676,19,57.338,18.8,57.383,17.965c0.067-1.264,0.033-2.534,0.01-3.801c-0.008-0.486,0.137-0.693,0.659-0.681
				c1.232,0.028,2.465-0.02,3.696,0.019c1.129,0.033,2.063,0.938,2.137,2.083c0.059,0.912-0.002,1.832,0.021,2.745
				c0.013,0.464-0.177,0.619-0.622,0.608C62.406,18.917,61.526,18.931,60.646,18.933z"/>
			<path fill-rule="evenodd" clip-rule="evenodd" fill="#FFFFFF" d="M57.402,22.499c-0.002-2.646-0.002-2.646,2.687-2.646
				c1.055,0,2.112,0.023,3.167-0.009c0.513-0.015,0.674,0.17,0.654,0.667c-0.032,0.844,0.015,1.689-0.014,2.533
				c-0.045,1.283-0.985,2.24-2.29,2.289c-1.16,0.044-2.322-0.013-3.482,0.02c-0.563,0.016-0.747-0.212-0.728-0.743
				C57.419,23.906,57.402,23.202,57.402,22.499z"/>
			<path fill-rule="evenodd" clip-rule="evenodd" fill="#FFFFFF" d="M53.205,18.931c-0.847,0-1.697-0.018-2.543,0.006
				c-0.539,0.017-0.767-0.174-0.741-0.735c0.036-0.776-0.025-1.557,0.017-2.332c0.083-1.497,1.032-2.368,2.549-2.376
				c1.131-0.008,2.262,0.015,3.393-0.01c0.46-0.01,0.615,0.149,0.608,0.609c-0.021,1.414-0.021,2.828-0.001,4.241
				c0.007,0.471-0.189,0.613-0.631,0.603C54.972,18.917,54.088,18.931,53.205,18.931z"/>
			<path fill-rule="evenodd" clip-rule="evenodd" fill="#FFFFFF" d="M53.225,19.854c0.883,0,1.767,0.019,2.648-0.008
				c0.456-0.013,0.621,0.141,0.613,0.606c-0.023,1.412-0.025,2.826,0.001,4.238c0.009,0.511-0.177,0.673-0.676,0.662
				c-1.166-0.027-2.332,0.021-3.496-0.019c-1.205-0.039-2.101-0.773-2.302-1.956c-0.188-1.11-0.426-2.413,0.08-3.31
				c0.356-0.633,1.701-0.137,2.601-0.213C52.872,19.84,53.048,19.854,53.225,19.854z"/>
			<path fill-rule="evenodd" clip-rule="evenodd" fill="#FFFFFF" d="M73.245,27.479c-0.445-3.837-3.774-7.952-7.419-9.011
				c-1.195-0.349-1.566-0.045-1.475,1.183c0.033,0.441,0.241,0.687,0.654,0.855c0.518,0.213,1.036,0.459,1.499,0.772
				c2.365,1.602,3.366,4.458,2.614,7.374c-0.755,2.928-3.606,5.371-6.612,5.608c-3.023,0.24-6.056,0.38-9.075,0.666
				c-3.831,0.362-7.636,0.943-11.193,2.514c-2.184,0.964-3.686,2.586-4.063,5.04c-0.365,2.375-0.215,4.734,0.654,6.979
				c1.873,4.836,6.402,6.459,10.632,3.878c0.143-0.057,0.292-0.101,0.446-0.16c-0.09,0.131-0.155,0.265-0.217,0.395
				c-2.454,2.325-5.502,2.502-8.142,0.459c-2.454-1.899-3.893-4.394-4.412-7.457c-0.221-1.304-0.185-2.605-0.18-3.908
				c0.002-0.6-0.063-0.855-0.74-0.538c-5.082,2.376-9.634,5.442-13.164,9.888c-1.989,2.503-3.638,5.321-6.431,7.099
				c-0.086,0.057-0.149,0.149-0.223,0.227c-0.129,0.132-0.253,0.298-0.143,0.465c0.106,0.158,0.313,0.132,0.484,0.065
				c0.358-0.146,0.718-0.294,1.07-0.455c1.369-0.63,2.599-1.491,3.843-2.428c0.091,0.799,0.193,1.494,0.246,2.193
				c0.405,5.274,0.824,10.549,1.521,15.795c0.367,2.762,1.622,4.189,4.027,4.629c2.31,0.423,3.749-0.416,5.101-2.985
				c0.229-0.435,0.454-0.879,0.626-1.337c0.508-1.351,1.002-2.709,1.475-4.072c0.437-1.262,1.311-2.075,2.538-2.515
				c1.54-0.547,3.105-0.604,4.663-0.069c1.496,0.514,2.532,1.411,2.832,3.091c0.259,1.452,0.695,2.87,1.107,4.292
				c0.867,3.002,3.699,4.218,6.64,3.226c0.908-0.304,1.5-0.867,1.799-1.778c0.389-1.186,0.531-2.4,0.559-3.641
				c0.116-5.115-0.116-10.235,0.388-15.347c0.469-4.746,2.048-8.869,5.784-12.061c2.763-2.36,5.442-4.823,7.931-7.484
				C71.909,35.696,73.777,32.072,73.245,27.479z M56.447,41.918c-0.374,0.002-0.604-0.192-0.608-0.576
				c-0.002-0.38,0.253-0.603,0.591-0.619c0.356-0.016,0.564,0.24,0.633,0.6C56.992,41.656,56.834,41.916,56.447,41.918z"/>
		</g>
	</g>
</g>
</svg>
