<?xml version="1.0" encoding="utf-8"?>
<!-- Generator: Adobe Illustrator 16.0.0, SVG Export Plug-In . SVG Version: 6.00 Build 0)  -->
<!DOCTYPE svg PUBLIC "-//W3C//DTD SVG 1.1//EN" "http://www.w3.org/Graphics/SVG/1.1/DTD/svg11.dtd">
<svg version="1.1" id="Layer_1" xmlns="http://www.w3.org/2000/svg" xmlns:xlink="http://www.w3.org/1999/xlink" x="0px" y="0px"
	 width="252px" height="94px" viewBox="0 0 252 94" enable-background="new 0 0 252 94" xml:space="preserve">
<g>
	<path fill-rule="evenodd" clip-rule="evenodd" fill="#FFFFFF" d="M85.854,87.146c0-26.764,0-53.527,0-80.291
		c26.764,0,53.527,0,80.291,0c0,26.764,0,53.527,0,80.291C139.382,87.146,112.618,87.146,85.854,87.146z"/>
	<path fill-rule="evenodd" clip-rule="evenodd" fill="#010101" d="M122.214,71.204c-2.218,0-4.396,0-6.634,0
		c0-7.42,0-14.832,0-22.287c-5.35,0-10.642,0-15.97,0c0,7.412,0,14.811,0,22.254c-2.228,0-4.416,0-6.636,0
		c0-16.289,0-32.578,0-48.897c2.195,0,4.371,0,6.598,0c0,6.621,0,13.233,0,19.896c5.341,0,10.629,0,15.967,0
		c0-6.629,0-13.242,0-19.891c2.244,0,4.44,0,6.675,0C122.214,38.563,122.214,54.854,122.214,71.204z"/>
	<path fill-rule="evenodd" clip-rule="evenodd" fill="#010101" d="M130.898,58.894c2.161,0,4.276,0,6.415,0
		c0.078,0.543,0.109,1.096,0.241,1.627c0.366,1.457,1.167,2.625,2.424,3.471c2.983,2.012,7.767,1.732,10.415-0.617
		c1.464-1.297,2.205-2.943,2.227-4.885c0.021-1.918,0.174-3.863-0.079-5.748c-0.538-3.988-3.313-6.206-7.53-6.234
		c-4.037-0.027-8.073-0.006-12.199-0.006c-0.226-8.131,0.933-16.168,1.304-24.273c7.579,0,15.063,0,22.596,0
		c0,2.112,0,4.217,0,6.399c-5.482,0-10.954,0-16.455,0c-0.306,3.867-0.605,7.657-0.912,11.533c1.326,0,2.591,0.029,3.853-0.007
		c2.826-0.082,5.612,0.074,8.202,1.368c4.899,2.448,7.514,6.411,7.639,11.893c0.058,2.444,0.251,4.907-0.222,7.337
		c-1.055,5.424-5.253,9.701-10.684,10.723c-5.241,0.984-9.963-0.104-13.83-3.953C132.034,65.263,130.79,61.978,130.898,58.894z"/>
</g>
</svg>
