<?xml version="1.0" encoding="utf-8"?>
<!-- Generator: Adobe Illustrator 16.0.0, SVG Export Plug-In . SVG Version: 6.00 Build 0)  -->
<!DOCTYPE svg PUBLIC "-//W3C//DTD SVG 1.1//EN" "http://www.w3.org/Graphics/SVG/1.1/DTD/svg11.dtd">
<svg version="1.1" id="Layer_1" xmlns="http://www.w3.org/2000/svg" xmlns:xlink="http://www.w3.org/1999/xlink" x="0px" y="0px"
	 width="260px" height="120px" viewBox="0 0 260 120" enable-background="new 0 0 260 120" xml:space="preserve">
<g>
	<path fill="#422767" d="M41.986,58.892c0.596-0.292,1.395-0.441,2.395-0.441c1.574,0,2.586,0.644,3.039,1.929
		c0.452,1.285,0.68,3.484,0.68,6.593c0,4.193-0.418,6.876-1.252,8.048c-0.834,1.173-2.157,1.758-3.968,1.758
		c-1.384,0-2.17-0.313-2.359-0.946V62.623c0,0,0-2.413,0.191-2.706C40.901,59.625,41.39,59.184,41.986,58.892 M42.093,50.399
		c-1.526,0.651-2.502,1.359-2.717,1.741c0,0-0.214,0.382-0.286-0.134s-0.334-1.55-0.715-2.584l-9.06,1.494
		c0,0-2.381,0.394-2.167,1.292c0.215,0.901,0.512,2.71,0.68,4.532c0.167,1.821,0.25,3.9,0.25,6.236v36.229c0,0,0,2.412,2.413,2.412
		h7.615c0,0,2.414,0,2.414-2.413v-9.022c0-1.481-0.048-2.614-0.143-3.399c-0.096-0.785-0.24-1.426-0.334-1.672
		c0,0-0.095-0.246,0.882,0.136c0.977,0.381,2.907,0.763,4.814,0.763c5.1,0,8.984-1.664,11.655-4.994
		c2.669-3.33,4.004-8.348,4.004-15.054c0-4.5-0.99-8.382-2.968-11.645c-1.978-3.263-5.827-4.896-11.547-4.896
		C45.215,49.422,43.618,49.749,42.093,50.399"/>
	<path fill="#422767" d="M219.76,59.141c0.571,1.045,0.857,2.611,0.857,4.7h-5.881c0,0-2.413,0-2.413-1.11
		c0-1.113,0.382-2.714,1.144-3.69c0.763-0.976,1.835-1.465,3.218-1.465C218.162,57.575,219.188,58.098,219.76,59.141
		 M213.575,75.836c-0.836-1.303-1.252-2.764-1.252-3.571c0,0,0-0.808,2.413-0.808h18.18v-2.906c0-6.219-1.334-10.962-4.004-14.229
		c-2.669-3.266-6.89-4.9-12.656-4.9c-5.291,0-9.416,1.632-12.369,4.895c-2.957,3.263-4.436,7.796-4.436,13.602
		c0,5.717,1.585,10.16,4.757,13.334c3.169,3.172,7.687,4.758,13.549,4.758c2.813,0,5.398-0.383,7.76-1.145
		c2.358-0.764,4.778-2.043,7.258-3.842l-3.394-4.771c0,0-1.397-1.966-2.995-0.799c-1.597,1.168-4.839,2.335-8.127,2.335
		C215.97,77.789,214.408,77.139,213.575,75.836"/>
	<path fill="#422767" d="M224.662,36.619c0,0-1.305-2.03-3.447-0.917l-12.623,6.563c0,0-0.783,0.406-0.293,1.139l2.094,3.137
		c0,0,1.338,2.008,3.587,1.132l11.978-4.662c0,0,2.249-0.875,0.945-2.905L224.662,36.619z"/>
	<path fill="#422767" d="M182.488,76.041c-0.525,0.766-1.432,1.149-2.718,1.149c-1.669,0-2.777-0.721-3.325-2.162
		s-0.822-3.581-0.822-6.42c0-3.918,0.297-6.588,0.895-8.008c0.595-1.418,1.703-2.129,3.324-2.129c1.334,0,2.217,0.452,2.431,0.903
		c0,0,0.216,0.45,0.216,2.863V76.041z M196.287,85.135c-0.618-1.526-0.999-3.041-1.143-4.545c-0.144-1.506-0.215-4.592-0.215-9.262
		V39.795c0,0,0-2.414-2.395-2.712l-7.652-0.953c0,0-2.395-0.298-2.395,2.116v6.911c0,0.85,0.046,1.869,0.143,3.054
		c0.095,1.186,0.189,2.003,0.238,2.228c0,0,0.047,0.224-0.263,0.044c-0.31-0.179-1.061-0.471-1.942-0.696
		c-0.882-0.224-1.777-0.336-2.681-0.336c-5.245,0-9.202,1.788-11.87,5.364c-2.67,3.575-4.004,8.104-4.004,13.591
		c0,5.576,1.297,9.905,3.896,12.985c2.598,3.081,6.231,4.62,10.904,4.62c1.764,0,3.324-0.258,4.684-0.773s2.468-1.246,2.896-1.717
		c0,0,0.429-0.473,0.477-0.112c0.047,0.358,0.238,1.055,0.381,1.392c0,0,0.143,0.336,2.557,0.336H196.287z"/>
	<path fill="#422767" d="M136.373,82.839c3.143-2.251,4.712-5.269,4.712-9.052c0-2.836-0.725-5.076-2.177-6.721
		c-1.453-1.643-3.773-2.802-6.961-3.477l-4.571-0.947c-1.476-0.314-2.487-0.686-3.035-1.113c-0.548-0.428-0.821-0.98-0.821-1.656
		c0-1.305,1.072-1.958,3.212-1.958c1.238,0,2.63,0.214,4.177,0.641c1.546,0.427,3.177,1.067,4.892,1.92l3.441-6.499
		c0,0,0.414-0.779-0.402-1.114c-3.23-1.326-6.015-2.337-7.538-2.697c-1.524-0.359-3.595-0.539-6.212-0.539
		c-4.665,0-8.354,1.082-11.067,3.243c-2.714,2.162-4.07,5.043-4.07,8.644c0,2.523,0.714,4.606,2.142,6.249
		c1.428,1.644,3.594,2.735,6.498,3.276l4.784,0.945c1.999,0.404,3.309,0.799,3.927,1.183c0.618,0.382,0.928,1.046,0.928,1.991
		c0,0.721-0.368,1.339-1.105,1.857c-0.739,0.518-1.656,0.776-2.75,0.776c-1.191,0-2.903-0.392-5.142-1.179
		c-2.237-0.785-4.546-1.875-6.926-3.268l-3.254,6.342c0,0-1.101,2.147,0.35,2.867c1.452,0.719,4.2,1.807,6.795,2.549
		c2.593,0.742,5.177,1.111,7.748,1.111C129.09,86.215,133.231,85.09,136.373,82.839"/>
	<path fill="#422767" d="M89.193,50.44c-1.049-0.406-1.812-0.678-2.288-0.813c-0.477-0.136-1.265-0.205-2.36-0.205
		c-1.716,0-3.158,0.399-4.326,1.194c-1.169,0.795-2.252,1.813-2.753,2.432c0,0-0.5,0.619-0.5,0.305c0-0.315-0.049-0.865-0.144-1.336
		c-0.096-0.472-0.311-1.291-0.644-2.46l-9.059,1.506c0,0-2.38,0.396-2.166,1.202c0.215,0.806,0.512,2.42,0.68,4.033
		c0.167,1.613,0.25,4.19,0.25,7.731v18.692c0,0,0,2.413,2.413,2.413h7.615c0,0,2.413,0,2.413-2.413V63.885c0,0,0-2.414,0.238-2.815
		c0.238-0.403,0.823-1.017,1.514-1.441c0.691-0.426,1.561-0.638,2.61-0.638c1.239,0,2.455,0.293,3.051,0.584
		c0,0,0.596,0.292,1.296-2.018L89.193,50.44z"/>
	<path fill="#422767" d="M104.173,44.451c1.405-1.28,2.109-2.841,2.109-4.684c0-1.886-0.668-3.458-2.002-4.716
		c-1.336-1.257-3.004-1.886-5.006-1.886c-2.002,0-3.718,0.65-5.149,1.953c-1.43,1.304-2.145,2.854-2.145,4.649
		c0,1.887,0.69,3.459,2.073,4.717c1.382,1.258,3.05,1.886,5.005,1.886C101.062,46.371,102.765,45.731,104.173,44.451"/>
	<path fill="#422767" d="M105.353,55.689c0-1.676-0.581-3.071-1.742-4.187c-1.161-1.116-2.612-1.675-4.354-1.675
		c-1.742,0-3.234,0.579-4.478,1.734c-1.229,1.142-1.843,2.499-1.86,4.066h-0.003c0,0-0.004,0-0.004,2.413v24.682
		c0,0,0,2.413,2.414,2.413h7.615c0,0,2.413,0,2.413-2.413V55.689z"/>
	<path fill="#A092B3" d="M148.939,91.921c0,0-3.526,0-3.526,3.526v2.645c0,0,0,3.526,3.526,3.526h80.731c0,0,3.527,0,3.527-3.526
		v-2.645c0,0,0-3.526-3.527-3.526H148.939z"/>
	<path fill="#422767" d="M138.502,88.449c0,0-0.464-0.75-1.23-0.314l-3.311,1.874l0.404,0.657c0,0,0.403,0.657,1.221,0.328
		l3.595-1.447L138.502,88.449z M134.729,95.621L134.729,95.621c0-0.623,0.138-1.104,0.414-1.446
		c0.275-0.341,0.664-0.511,1.163-0.511c0.512,0,0.886,0.16,1.122,0.479c0.236,0.321,0.355,0.784,0.355,1.39v0.105L134.729,95.621z
		 M139.417,98.724c-0.815,0.588-1.667,0.882-2.561,0.882c-0.683,0-1.208-0.187-1.576-0.56c-0.368-0.372-0.552-0.909-0.552-1.61
		v-0.034c0,0,0-0.035,1.764-0.035h4.068v-0.545c0-1.815-0.395-3.084-1.182-3.805c-0.789-0.72-1.813-1.081-3.073-1.081
		c-1.3,0-2.267,0.313-2.897,0.939c-0.629,0.627-1.045,1.222-1.24,1.783c-0.197,0.563-0.295,1.247-0.295,2.056
		c0,1.417,0.432,2.547,1.301,3.391c0.865,0.843,2.021,1.265,3.467,1.265c1.391,0,2.659-0.417,3.801-1.252L139.417,98.724z
		 M126.061,94.49v4.289c-0.144,0.164-0.337,0.301-0.578,0.413c-0.241,0.111-0.479,0.166-0.713,0.166
		c-0.692,0-1.168-0.187-1.429-0.562c-0.262-0.375-0.392-1.043-0.392-2.004c0-0.996,0.133-1.726,0.401-2.188
		c0.267-0.464,0.695-0.694,1.282-0.694C125.089,93.91,125.564,94.104,126.061,94.49 M128.662,88.463L128.662,88.463l-2.601-0.371
		v3.104c0,0.635,0.013,1.082,0.027,1.211c0,0,0.013,0.129-0.223-0.041c-0.236-0.172-0.832-0.342-1.551-0.342
		c-1.283,0-2.321,0.439-3.113,1.314s-1.188,2.025-1.188,3.446c0,1.411,0.374,2.527,1.12,3.351c0.746,0.822,1.762,1.234,3.046,1.234
		c0.903,0,1.676-0.253,1.999-0.506c0,0,0.321-0.252,0.342-0.135c0.022,0.118,0.079,0.294,0.153,0.411h1.182c0,0,1.181,0,1.129-0.111
		c-0.053-0.111-0.142-0.465-0.213-0.946c-0.072-0.482-0.109-1.228-0.109-2.24V88.463z M116.812,88.594
		c-0.308-0.287-0.687-0.431-1.133-0.431c-0.472,0-0.866,0.14-1.181,0.423c-0.315,0.281-0.473,0.628-0.473,1.039
		c0,0.413,0.158,0.759,0.473,1.041s0.695,0.424,1.142,0.424c0.46,0,0.847-0.142,1.163-0.424c0.314-0.282,0.473-0.628,0.473-1.041
		C117.275,89.227,117.121,88.883,116.812,88.594 M115.639,92.086c0,0-1.319,0.185-1.319,2.598v6.456h1.319c0,0,1.321,0,1.321-2.413
		V91.9L115.639,92.086z M102.401,94.49v4.289c-0.144,0.164-0.336,0.301-0.577,0.413c-0.242,0.111-0.48,0.166-0.714,0.166
		c-0.692,0-1.168-0.187-1.429-0.562s-0.392-1.043-0.392-2.004c0-0.996,0.133-1.726,0.401-2.188c0.268-0.464,0.695-0.694,1.282-0.694
		C101.429,93.91,101.906,94.104,102.401,94.49 M105.002,88.463L105.002,88.463l-2.601-0.371v3.104c0,0.635,0.013,1.082,0.027,1.211
		c0,0,0.013,0.129-0.223-0.041c-0.236-0.172-0.832-0.342-1.552-0.342c-1.283,0-2.32,0.439-3.112,1.314
		c-0.793,0.875-1.188,2.025-1.188,3.446c0,1.411,0.374,2.527,1.121,3.351c0.746,0.822,1.761,1.234,3.046,1.234
		c0.904,0,1.676-0.253,1.997-0.506c0,0,0.321-0.252,0.342-0.135c0.022,0.118,0.081,0.294,0.153,0.411h1.182c0,0,1.182,0,1.129-0.111
		c-0.053-0.111-0.141-0.465-0.213-0.946c-0.072-0.482-0.109-1.228-0.109-2.24V88.463z M89.498,93.682
		c0.486,0,0.886,0.182,1.202,0.547c0.315,0.363,0.473,1.146,0.473,2.345c0,1.069-0.131,1.845-0.395,2.327
		c-0.262,0.482-0.676,0.724-1.24,0.724c-0.276,0-0.542-0.065-0.798-0.195c-0.256-0.129-0.466-0.37-0.63-0.722
		c-0.165-0.354-0.247-1.052-0.247-2.099c0-0.846,0.092-1.517,0.276-2.011C88.375,93.987,88.828,93.682,89.498,93.682 M89.458,91.936
		c-1.366,0-2.462,0.435-3.291,1.305c-0.827,0.871-1.24,2.011-1.24,3.421c0,1.423,0.413,2.558,1.24,3.403
		c0.828,0.847,1.925,1.27,3.291,1.27c0.762,0,1.405-0.106,1.931-0.317s1.001-0.535,1.428-0.971c0.427-0.435,0.739-0.922,0.936-1.463
		c0.197-0.54,0.295-1.204,0.295-1.992c0-1.387-0.388-2.486-1.163-3.298C92.033,92.389,90.89,91.936,89.458,91.936 M77.521,93.682
		c1.064,0,1.596,0.447,1.596,1.34c0,0.858-0.539,1.287-1.615,1.287c-0.486,0-0.867-0.105-1.144-0.317
		c-0.275-0.212-0.413-0.535-0.413-0.97C75.944,94.129,76.47,93.682,77.521,93.682 M82.681,91.596
		c-0.643,0.521-1.339,0.78-2.087,0.78c-0.171,0-0.352-0.017-0.542-0.052c-0.19-0.035-0.529-0.106-1.014-0.212
		c-0.486-0.106-0.985-0.159-1.497-0.159c-1.288,0-2.318,0.275-3.093,0.828s-1.163,1.295-1.163,2.223c0,1.34,0.723,2.175,2.168,2.504
		c-0.763,0.176-1.262,0.386-1.499,0.626S73.6,98.672,73.6,99.024c0,0.61,0.253,1.008,0.758,1.19
		c0.506,0.182,1.317,0.272,2.434,0.272h1.123c0.577,0,1.031,0.082,1.359,0.247c0.328,0.164,0.492,0.441,0.492,0.828
		c0,0.377-0.164,0.652-0.492,0.829c-0.329,0.177-0.614,0.285-0.857,0.326c-0.243,0.041-0.562,0.063-0.956,0.063
		c-1.26,0-1.891-0.367-1.891-1.1c0-0.129,0.008-0.23,0.026-0.306c0.018-0.076,0.062-0.166,0.131-0.271h-2.443
		c-0.092,0.141-0.161,0.273-0.206,0.396c-0.047,0.123-0.069,0.298-0.069,0.521c0,0.611,0.246,1.122,0.739,1.534
		c0.492,0.411,1.06,0.687,1.705,0.828c0.643,0.142,1.378,0.212,2.206,0.212c0.84,0,1.609-0.095,2.305-0.282
		c0.696-0.188,1.284-0.512,1.763-0.97c0.479-0.459,0.719-1.052,0.719-1.781c0-0.799-0.236-1.396-0.709-1.789
		c-0.473-0.395-0.929-0.649-1.369-0.767s-1.055-0.177-1.842-0.177h-1.418c-0.289,0-0.434-0.071-0.434-0.215
		c0-0.108,0.089-0.226,0.267-0.351c0.177-0.126,0.436-0.261,0.777-0.404h0.394c1.077,0,1.967-0.251,2.669-0.755
		s1.054-1.142,1.054-1.914c0-0.562-0.197-1.054-0.591-1.475l0.689,0.048c0.696,0,1.313-0.223,1.853-0.669L82.681,91.596z
		 M56.382,92.469c0.236,0.602,0.354,1.307,0.354,2.12v6.551h1.32c0,0,1.321,0,1.321-1.763V96.52c0,0,0-1.762,0.164-1.892
		c0.163-0.13,0.482-0.329,0.791-0.471c0.308-0.142,0.601-0.211,0.877-0.211c0.341,0,0.574,0.091,0.699,0.273
		c0.124,0.182,0.187,0.531,0.187,1.048v5.872h1.3c0,0,1.3,0,1.3-1.763v-4.844c0-0.543-0.073-0.992-0.217-1.352
		c-0.144-0.36-0.436-0.657-0.875-0.893c-0.441-0.234-0.95-0.354-1.527-0.354c-0.657,0-1.175,0.093-1.556,0.277
		c-0.382,0.186-0.647,0.324-0.798,0.413c-0.151,0.091-0.358,0.218-0.62,0.386c0-0.366-0.125-0.744-0.375-1.133L56.382,92.469z
		 M47.872,95.621L47.872,95.621c0-0.623,0.138-1.104,0.414-1.446c0.276-0.341,0.663-0.511,1.162-0.511
		c0.512,0,0.887,0.16,1.123,0.479c0.236,0.321,0.354,0.784,0.354,1.39v0.105L47.872,95.621z M52.561,98.724
		c-0.815,0.588-1.668,0.882-2.561,0.882c-0.683,0-1.209-0.187-1.577-0.56c-0.368-0.372-0.551-0.909-0.551-1.61v-0.034
		c0,0,0-0.035,1.763-0.035h4.068v-0.545c0-1.815-0.394-3.084-1.183-3.805c-0.788-0.72-1.812-1.081-3.073-1.081
		c-1.301,0-2.265,0.313-2.896,0.939c-0.63,0.627-1.044,1.222-1.24,1.783c-0.197,0.563-0.296,1.247-0.296,2.056
		c0,1.417,0.433,2.547,1.3,3.391c0.868,0.843,2.023,1.265,3.467,1.265c1.393,0,2.66-0.417,3.803-1.252L52.561,98.724z"/>
	<path fill="#DB6626" d="M162.687,35.154c0,3.125-1.067,5.695-3.262,7.861c-2.212,2.181-4.829,3.241-7.995,3.241
		c-3.066,0-5.604-1.034-7.767-3.165c-2.141-2.107-3.182-4.704-3.182-7.937c0-3.019,1.095-5.562,3.341-7.781
		c2.265-2.234,4.906-3.32,8.073-3.32c3.134,0,5.656,1.018,7.706,3.105C161.678,29.28,162.687,31.895,162.687,35.154 M171.502,35.154
		c0-5.6-1.883-10.364-5.604-14.166c-3.744-3.816-8.457-5.75-14.003-5.75c-5.522,0-10.321,1.972-14.265,5.859
		c-3.958,3.906-5.965,8.634-5.965,14.057c0,5.64,1.956,10.424,5.812,14.217c2.593,2.557,5.584,4.24,8.919,5.076
		c-0.632,0.909-0.965,1.925-0.978,3.053h-0.005v4.822v7.193v9.818h0.005c0.017,1.566,0.629,2.924,1.847,4.065
		c1.234,1.156,2.715,1.735,4.441,1.735c1.729,0,3.168-0.56,4.32-1.676c1.152-1.115,1.729-2.512,1.729-4.188v-9.756v-7.193v-4.759
		c0-1.212-0.313-2.274-0.916-3.193c3.277-0.873,6.219-2.559,8.773-5.078C169.521,45.439,171.502,40.683,171.502,35.154"/>
</g>
</svg>
