<?xml version="1.0" encoding="utf-8"?>
<!-- Generator: Adobe Illustrator 16.0.0, SVG Export Plug-In . SVG Version: 6.00 Build 0)  -->
<!DOCTYPE svg PUBLIC "-//W3C//DTD SVG 1.1//EN" "http://www.w3.org/Graphics/SVG/1.1/DTD/svg11.dtd">
<svg version="1.1" id="Layer_1" xmlns="http://www.w3.org/2000/svg" xmlns:xlink="http://www.w3.org/1999/xlink" x="0px" y="0px"
	 width="252px" height="94px" viewBox="0 0 252 94" enable-background="new 0 0 252 94" xml:space="preserve">
<g>
	<path fill-rule="evenodd" clip-rule="evenodd" fill="#FFFFFF" d="M15.837,69.221c2.215-5.412,3.845-11.031,5.827-16.525
		c0.992-2.754,1.843-5.558,2.875-8.295c0.473-1.252,0.493-2.071-0.856-2.776c-1.29-0.674-2.45-1.604-3.642-2.458
		c-1.419-1.016-1.478-1.928-0.038-2.813c2.234-1.372,4.528-2.653,6.849-3.875c1.397-0.735,2.833-0.597,4.166,0.311
		c1.414,0.963,2.848,1.896,4.25,2.874c2.063,1.439,2.405,2.429,1.568,4.855c-1.871,5.42-3.784,10.825-5.679,16.236
		c-0.157,0.447-0.306,0.897-0.619,1.814c3.092-2.68,5.834-5.053,8.573-7.43c3.417-2.966,6.732-6.059,10.278-8.861
		c2.64-2.086,4.396-4.64,5.618-7.71c1.198-3.007,2.456-3.327,5.159-1.542c4.827,3.189,5.215,4.247,3.276,9.667
		c-2.324,6.492-4.733,12.954-6.3,19.688c-0.082,0.352-0.14,0.709-0.304,1.555c1.553-1.679,2.809-3.012,4.037-4.367
		c7.427-8.204,14.852-16.409,22.268-24.622c2.962-3.281,5.617-3.579,9.643-1.649c3.786,1.815,5.343,4.452,5.2,8.699
		c-0.305,9.106-0.253,18.227-0.287,27.342c-0.009,2.393-0.945,4.072-3.076,5.175c-2.414,1.25-4.78,2.59-7.167,3.891
		c-0.613,0-1.225,0-1.836,0c-1.805-0.349-3.496-1.016-5.159-1.784c-2.418-1.117-3.592-3.053-3.74-5.638
		c-0.084-1.465-0.07-2.938,0-4.404c0.109-2.271,1.243-3.051,3.427-2.357c0.99,0.314,1.92,0.797,2.883,1.189
		c1.955,0.797,2.105,0.727,2.109-1.322c0.014-7.342,0.003-14.684,0.006-22.194c-1.936,1.701-3.429,3.643-5.03,5.467
		c-6.896,7.858-13.874,15.644-20.746,23.522c-1.604,1.84-3.139,3.756-4.95,5.414c-1.859,1.702-3.473,1.937-5.671,0.684
		c-1.596-0.91-3.066-2.022-4.494-3.172c-2.154-1.736-1.964-4.082-1.408-6.406c0.697-2.922,1.941-5.666,2.933-8.551
		c-2.326,1.833-4.445,3.907-6.587,5.927c-4.136,3.902-8.396,7.672-12.474,11.637c-1.719,1.671-3.114,1.8-5.087,0.389
		c-2.011-1.438-4.506-2.299-5.796-4.644C15.837,71.18,15.837,70.199,15.837,69.221z"/>
	<path fill-rule="evenodd" clip-rule="evenodd" fill="#FFFFFF" d="M57.227,15.876c-0.035-0.122,0.002-0.215,0.112-0.279
		c41.258,0,82.515,0,123.773,0c0,0.112,0.021,0.22,0.063,0.323c-0.905,0.891-2.065,0.633-3.135,0.635
		c-10.467,0.022-20.934,0.013-31.4,0.013c-28.646,0-57.292,0.005-85.938-0.017C59.524,16.551,58.228,16.899,57.227,15.876z"/>
	<path fill-rule="evenodd" clip-rule="evenodd" fill="#FFFFFF" d="M57.227,15.876c0.609,0.03,1.218,0.084,1.828,0.085
		c40.464,0.007,80.928,0.009,121.393,0.01c0.243,0,0.486-0.033,0.729-0.051c1.11,0.137,1.693,0.948,2.149,1.814
		c0.967,1.834,1.913,3.685,2.765,5.574c0.737,1.638,0.321,2.2-1.506,2.201c-7.896,0.008-15.793,0.004-23.689,0.004
		c-12.426,0-24.853,0-37.278,0c-0.591,0-1.182,0-2.347,0c1.234,0.697,1.986,1.13,2.745,1.549c2.802,1.544,3.39,2.797,2.43,5.844
		c-2.843,9.02-5.749,18.019-8.627,27.028c-0.35,1.092-0.691,2.187-0.753,3.462c1.813-2.012,3.635-4.015,5.438-6.035
		c6.679-7.483,13.349-14.976,20.034-22.454c0.609-0.683,1.261-1.338,1.955-1.933c1.35-1.157,2.853-1.291,4.42-0.463
		c0.592,0.313,1.158,0.68,1.712,1.059c6.165,4.223,5.076,5.498,3.414,10.305c-1.436,4.151-2.748,8.345-4.104,12.522
		c-0.166,0.51-0.273,1.039-0.51,1.957c4.217-3.929,8.142-7.579,12.06-11.237c2.639-2.463,5.269-4.932,7.896-7.405
		c1.147-1.079,2.337-2.072,2.987-3.625c0.629-1.498,1.948-1.794,3.368-1.018c1.718,0.939,3.355,2.023,4.772,3.383
		c1.686,1.62,1.348,3.58,0.632,5.463c-1.76,4.626-3.042,9.401-4.529,14.111c-0.088,0.278-0.159,0.561-0.384,1.361
		c3.27-3.419,6.184-6.454,9.087-9.501c4.811-5.048,9.598-10.117,14.425-15.15c3.259-3.398,6.674-3.653,10.408-0.854
		c0.929,0.697,1.879,1.37,2.785,2.095c2.67,2.138,3.138,4.475,1.417,7.404c-2.846,4.844-5.763,9.65-7.444,15.065
		c-0.671,2.16-1.291,4.336-1.183,6.641c0.171,3.646,2.769,5.396,6.171,4.129c2.115-0.787,3.813-2.197,5.298-3.837
		c5.24-5.787,7.936-12.655,8.546-20.396c0.105-1.329-0.188-2.318-1.466-3.033c-1.435-0.804-2.751-1.819-4.109-2.756
		c-1.034-0.713-1.266-1.644-0.148-2.346c2.616-1.643,5.022-3.737,8.247-4.193c1.938-0.275,3.607,0.184,4.975,1.68
		c1.91,2.089,2.857,4.605,2.918,7.343c0.254,11.526-3.263,21.7-11.573,29.858c-5.05,4.958-11.244,7.356-18.403,6.241
		c-7.112-1.108-10.584-5.33-10.74-12.585c-0.134-6.206,1.506-11.951,4.457-17.362c0.483-0.885,0.95-1.778,1.161-2.843
		c-3.567,3.833-7.138,7.662-10.702,11.497c-5.912,6.36-11.816,12.729-17.734,19.084c-2.069,2.221-3.164,2.343-5.715,0.653
		c-1.273-0.845-2.518-1.734-3.762-2.62c-1.362-0.969-1.79-2.255-1.285-3.858c1.396-4.43,3.432-8.609,5.054-12.95
		c0.292-0.781,0.782-1.501,0.812-2.49c-7.164,6.824-14.265,13.554-21.325,20.325c-3.563,3.418-3.739,3.472-7.85,0.708
		c-4.776-3.213-4.791-3.217-2.952-8.73c2.568-7.702,5.162-15.396,7.743-23.094c0.151-0.453,0.448-0.879,0.295-1.421
		c-0.619-0.066-0.769,0.509-1.044,0.826c-9.171,10.583-18.331,21.175-27.474,31.782c-2.759,3.201-3.949,3.404-7.451,1.102
		c-5.79-3.806-5.955-4.335-3.835-10.917c4.077-12.658,8.126-25.324,12.183-37.988c0.128-0.399,0.202-0.816,0.34-1.381
		c-0.772,0-1.432,0-2.091,0c-16.895,0-33.79-0.026-50.684,0.034c-2.058,0.007-3.362-0.742-4.198-2.556
		c-0.792-1.718-1.675-3.394-2.464-5.113C56.594,17.189,56.112,16.382,57.227,15.876z"/>
</g>
</svg>
