<?xml version="1.0" encoding="utf-8"?>
<!-- Generator: Adobe Illustrator 16.0.0, SVG Export Plug-In . SVG Version: 6.00 Build 0)  -->
<!DOCTYPE svg PUBLIC "-//W3C//DTD SVG 1.1//EN" "http://www.w3.org/Graphics/SVG/1.1/DTD/svg11.dtd">
<svg version="1.1" xmlns="http://www.w3.org/2000/svg" xmlns:xlink="http://www.w3.org/1999/xlink" x="0px" y="0px" width="50px"
	 height="50px" viewBox="0 0 50 50" enable-background="new 0 0 50 50" xml:space="preserve">
<g id="Layer_2">
	<rect x="-20.5" y="-17.5" fill="#DAB871" width="137" height="99"/>
</g>
<g id="Layer_1">
	<g>
		<path d="M37.792,18.952c0.621,0,1.129,0.204,1.522,0.609c0.394,0.407,0.59,0.921,0.59,1.543v7.849c0,0.621-0.196,1.127-0.59,1.514
			c-0.395,0.389-0.901,0.582-1.522,0.582h-9.715c-0.853,0-1.485-0.324-1.905-0.973l-1.867-2.896L22.553,30
			c-0.406,0.648-1.048,0.973-1.924,0.973H12.21c-0.622,0-1.13-0.197-1.524-0.592c-0.394-0.393-0.59-0.9-0.59-1.523v-7.714
			c0-0.622,0.197-1.13,0.59-1.524c0.394-0.393,0.902-0.59,1.524-0.59h8.419c0.876,0,1.518,0.331,1.924,0.991l1.752,2.8l1.867-2.838
			c0.443-0.686,1.079-1.029,1.905-1.029L37.792,18.952L37.792,18.952z M20.991,21.695h-8.553v6.629h8.553l2.209-3.315L20.991,21.695
			z M37.563,21.619h-9.867l-2.229,3.391l2.229,3.391h9.867V21.619z"/>
	</g>
</g>
</svg>
