<?xml version="1.0" encoding="utf-8"?>
<!-- Generator: Adobe Illustrator 16.0.0, SVG Export Plug-In . SVG Version: 6.00 Build 0)  -->
<!DOCTYPE svg PUBLIC "-//W3C//DTD SVG 1.1//EN" "http://www.w3.org/Graphics/SVG/1.1/DTD/svg11.dtd">
<svg version="1.1" id="Layer_1" xmlns="http://www.w3.org/2000/svg" xmlns:xlink="http://www.w3.org/1999/xlink" x="0px" y="0px"
	 width="100px" height="100px" viewBox="0 0 100 100" enable-background="new 0 0 100 100" xml:space="preserve">
<g>
	<rect y="0" fill="#74C5B9" width="100" height="100"/>
	<g id="_x33_4">
		<path fill="#654118" d="M72.635,71.621L62.233,59.924l-0.485,0.4l-1.174-1.209c3.871-3.535,6.377-8.56,6.572-14.214
			c0.387-11.148-8.337-20.503-19.482-20.889c-11.156-0.385-20.505,8.341-20.894,19.492c-0.386,11.148,8.343,20.501,19.494,20.884
			c4.671,0.164,9.017-1.291,12.53-3.84l-0.169,0.141l0.958,1.398l-0.489,0.4l9.383,12.527c0.94,1.146,2.628,1.316,3.778,0.379
			C73.402,74.457,73.572,72.768,72.635,71.621z M46.423,59.777c-8.588-0.299-15.335-7.525-15.036-16.114
			c0.297-8.586,7.526-15.331,16.111-15.034c8.588,0.299,15.334,7.521,15.041,16.113C62.24,53.33,55.012,60.074,46.423,59.777z"/>
		<g>
			<path fill="#F6E4B8" d="M37.31,31.989c-0.269,0.212-0.528,0.434-0.783,0.664C36.849,32.499,37.114,32.278,37.31,31.989z"/>
			<path fill="#F6E4B8" d="M41.609,29.579c-0.313,0.114-0.617,0.247-0.919,0.38v2.873h0.919V29.579z"/>
			<path fill="#F6E4B8" d="M47.498,28.629c-0.108-0.004-0.212,0.008-0.32,0.006c0.493,0.293,0.727,0.926,0.727,1.774
				c0,1.225-0.466,2.001-1.44,2.001c-0.866,0-1.43-0.709-1.43-1.958c0-0.886,0.283-1.482,0.723-1.78
				c-0.392,0.03-0.78,0.079-1.164,0.138c-0.319,0.41-0.511,0.953-0.511,1.636c0.022,1.589,0.952,2.467,2.328,2.467
				c1.561,0,2.446-0.901,2.446-2.533c0-0.704-0.187-1.268-0.525-1.679C48.054,28.676,47.78,28.64,47.498,28.629z"/>
			<path fill="#F6E4B8" d="M51.969,32.913c1.504,0,2.376-0.85,2.432-2.381c-0.314-0.172-0.629-0.344-0.957-0.495
				c0.01,0.12,0.018,0.243,0.018,0.373c0,1.225-0.465,2.001-1.439,2.001c-0.865,0-1.431-0.709-1.431-1.958
				c0-0.554,0.114-0.989,0.303-1.317c-0.281-0.073-0.567-0.132-0.854-0.189c-0.256,0.392-0.4,0.895-0.4,1.5
				C49.661,32.035,50.591,32.913,51.969,32.913z"/>
			<path fill="#F6E4B8" d="M57.363,32.617v0.215h0.221C57.509,32.761,57.439,32.685,57.363,32.617z"/>
			<path fill="#F6E4B8" d="M35.414,36.818c-1.429,0-2.449,0.887-2.449,2.495c0.023,1.588,0.955,2.467,2.33,2.467
				c1.56,0,2.448-0.9,2.448-2.532C37.743,37.717,36.897,36.818,35.414,36.818z M35.348,41.278c-0.864,0-1.428-0.708-1.428-1.957
				c0-1.308,0.606-2.001,1.44-2.001c0.984,0,1.429,0.775,1.429,1.958C36.789,40.501,36.323,41.278,35.348,41.278z"/>
			<path fill="#F6E4B8" d="M40.971,36.818c-1.429,0-2.448,0.887-2.448,2.495c0.024,1.588,0.955,2.467,2.33,2.467
				c1.56,0,2.447-0.9,2.447-2.532C43.3,37.717,42.456,36.818,40.971,36.818z M40.905,41.278c-0.865,0-1.428-0.708-1.428-1.957
				c0-1.308,0.606-2.001,1.439-2.001c0.983,0,1.43,0.775,1.43,1.958C42.347,40.501,41.881,41.278,40.905,41.278z"/>
			<polygon fill="#F6E4B8" points="47.169,41.699 47.169,36.899 46.356,36.899 44.817,37.459 45.002,37.955 46.227,37.504 
				46.248,37.504 46.248,41.699 			"/>
			<path fill="#F6E4B8" d="M52.087,36.818c-1.43,0-2.448,0.887-2.448,2.495c0.022,1.588,0.952,2.467,2.33,2.467
				c1.557,0,2.443-0.9,2.443-2.532C54.412,37.717,53.57,36.818,52.087,36.818z M52.021,41.278c-0.865,0-1.431-0.708-1.431-1.957
				c0-1.308,0.607-2.001,1.442-2.001c0.984,0,1.428,0.775,1.428,1.958C53.461,40.501,52.996,41.278,52.021,41.278z"/>
			<polygon fill="#F6E4B8" points="55.936,37.459 56.118,37.955 57.342,37.504 57.363,37.504 57.363,41.699 58.283,41.699 
				58.283,36.899 57.471,36.899 			"/>
			<path fill="#F6E4B8" d="M62.338,41.671c-0.047-0.284-0.115-0.558-0.177-0.836c-0.286-0.333-0.454-0.843-0.454-1.515
				c0-0.033,0.005-0.061,0.005-0.092c-0.163-0.484-0.349-0.955-0.558-1.416c-0.256,0.392-0.4,0.895-0.4,1.5
				C60.771,40.591,61.385,41.401,62.338,41.671z"/>
			<path fill="#F6E4B8" d="M32.104,48.852c0.047-0.228,0.08-0.47,0.08-0.737c0-0.79-0.229-1.407-0.649-1.824
				C31.652,47.168,31.844,48.024,32.104,48.852z"/>
			<path fill="#F6E4B8" d="M35.414,45.684c-1.429,0-2.449,0.887-2.449,2.496c0.023,1.589,0.955,2.467,2.33,2.467
				c1.56,0,2.448-0.9,2.448-2.532C37.743,46.585,36.897,45.684,35.414,45.684z M35.348,50.145c-0.864,0-1.428-0.709-1.428-1.958
				c0-1.306,0.606-2.001,1.44-2.001c0.984,0,1.429,0.776,1.429,1.958C36.789,49.369,36.323,50.145,35.348,50.145z"/>
			<polygon fill="#F6E4B8" points="41.609,50.565 41.609,45.765 40.798,45.765 39.262,46.326 39.444,46.82 40.669,46.371 
				40.69,46.371 40.69,50.565 			"/>
			<path fill="#F6E4B8" d="M46.53,45.684c-1.431,0-2.448,0.887-2.448,2.496c0.022,1.589,0.952,2.467,2.328,2.467
				c1.561,0,2.446-0.9,2.446-2.532C48.856,46.585,48.013,45.684,46.53,45.684z M46.464,50.145c-0.866,0-1.43-0.709-1.43-1.958
				c0-1.306,0.607-2.001,1.441-2.001c0.984,0,1.429,0.776,1.429,1.958C47.904,49.369,47.438,50.145,46.464,50.145z"/>
			<path fill="#F6E4B8" d="M52.087,45.684c-1.43,0-2.448,0.887-2.448,2.496c0.022,1.589,0.952,2.467,2.33,2.467
				c1.557,0,2.443-0.9,2.443-2.532C54.412,46.585,53.57,45.684,52.087,45.684z M52.021,50.145c-0.865,0-1.431-0.709-1.431-1.958
				c0-1.306,0.607-2.001,1.442-2.001c0.984,0,1.428,0.776,1.428,1.958C53.461,49.369,52.996,50.145,52.021,50.145z"/>
			<polygon fill="#F6E4B8" points="55.936,46.326 56.118,46.82 57.342,46.371 57.363,46.371 57.363,50.565 58.283,50.565 
				58.283,45.765 57.471,45.765 			"/>
			<path fill="#F6E4B8" d="M61.49,46.326l0.185,0.494l0.683-0.25c0.03-0.195,0.053-0.392,0.075-0.588L61.49,46.326z"/>
			<path fill="#F6E4B8" d="M35.414,54.551c-0.025,0-0.048,0.006-0.072,0.008c0.185,0.207,0.377,0.406,0.573,0.605
				c0.278,0.115,0.487,0.326,0.631,0.613c0.376,0.34,0.771,0.662,1.18,0.965C37.638,55.363,36.815,54.551,35.414,54.551z"/>
			<path fill="#F6E4B8" d="M40.971,54.551c-1.429,0-2.448,0.887-2.448,2.496c0.001,0.088,0.016,0.164,0.022,0.246
				c0.339,0.219,0.686,0.424,1.042,0.617c-0.071-0.248-0.109-0.533-0.109-0.855c0-1.307,0.606-2.002,1.439-2.002
				c0.983,0,1.43,0.775,1.43,1.959c0,0.879-0.244,1.521-0.74,1.816c0.256,0.094,0.519,0.174,0.78,0.254
				c0.59-0.416,0.913-1.125,0.913-2.1C43.3,55.451,42.456,54.551,40.971,54.551z"/>
			<polygon fill="#F6E4B8" points="44.817,55.193 45.002,55.688 46.227,55.238 46.248,55.238 46.248,59.434 47.169,59.434 
				47.169,54.633 46.356,54.633 			"/>
			<path fill="#F6E4B8" d="M52.087,54.551c-1.43,0-2.448,0.887-2.448,2.496c0.016,1.117,0.487,1.875,1.242,2.232
				c0.319-0.084,0.629-0.186,0.939-0.289c-0.748-0.104-1.229-0.789-1.229-1.936c0-1.307,0.607-2.002,1.442-2.002
				c0.984,0,1.428,0.775,1.428,1.959c0,0.646-0.133,1.162-0.398,1.51c0.414-0.178,0.82-0.369,1.217-0.58
				c0.083-0.285,0.133-0.602,0.133-0.959C54.412,55.451,53.57,54.551,52.087,54.551z"/>
			<path fill="#F6E4B8" d="M55.936,55.193l0.183,0.494l1.224-0.449h0.021v0.545c0.32-0.289,0.625-0.592,0.92-0.904v-0.246h-0.813
				L55.936,55.193z"/>
		</g>
	</g>
</g>
</svg>
